<svg width="16" height="17" viewBox="0 0 16 17" fill="none" xmlns="http://www.w3.org/2000/svg">
<path fill-rule="evenodd" clip-rule="evenodd" d="M11.2869 5.40462C11.3081 5.35737 11.318 5.30588 11.3159 5.25417H11.3333C11.2588 3.47523 9.78993 2.07129 8.0033 2.07129C6.21666 2.07129 4.74781 3.47523 4.67326 5.25417C4.66447 5.30394 4.66447 5.35485 4.67326 5.40462H4.62114C3.76681 5.40462 2.85356 5.9686 2.58843 7.48467L2.06994 11.6144C1.64572 14.6466 3.20708 15.4046 5.24569 15.4046H10.7723C12.805 15.4046 14.3193 14.307 13.9422 11.6144L13.4296 7.48467C13.1173 6.01105 12.2335 5.40462 11.391 5.40462H11.2869ZM10.3288 5.40462C10.3103 5.35658 10.3004 5.30564 10.2998 5.25417C10.2998 3.97584 9.25991 2.93955 7.97717 2.93955C6.69443 2.93955 5.65456 3.97584 5.65456 5.25417C5.66335 5.30394 5.66335 5.35485 5.65456 5.40462H10.3288ZM6.06466 8.83701C5.73926 8.83701 5.47547 8.5655 5.47547 8.23058C5.47547 7.89566 5.73926 7.62415 6.06466 7.62415C6.39007 7.62415 6.65386 7.89566 6.65386 8.23058C6.65386 8.5655 6.39007 8.83701 6.06466 8.83701ZM9.33469 8.23058C9.33469 8.5655 9.59848 8.83701 9.92388 8.83701C10.2493 8.83701 10.5131 8.5655 10.5131 8.23058C10.5131 7.89566 10.2493 7.62415 9.92388 7.62415C9.59848 7.62415 9.33469 7.89566 9.33469 8.23058Z" fill="white"/>
</svg>
