<svg width="71" height="69" viewBox="0 0 71 69" fill="none" xmlns="http://www.w3.org/2000/svg">
<path fill-rule="evenodd" clip-rule="evenodd" d="M0.5 19.835V63.3029C0.5 66.3526 2.98142 68.8341 6.03219 68.8341H64.9678C68.0186 68.8341 70.5 66.3526 70.5 63.3029V19.835H0.5ZM19.166 30.3352C19.166 30.98 18.6436 31.5014 17.9997 31.5014C17.3554 31.5014 16.833 30.98 16.833 30.3352C16.833 27.7612 18.9259 25.6682 21.4995 25.6682C24.0731 25.6682 26.166 27.7611 26.166 30.3352C26.166 30.98 25.6436 31.5014 24.9997 31.5014C24.3554 31.5014 23.833 30.98 23.833 30.3352C23.833 29.0479 22.7863 28.0017 21.4995 28.0017C20.2128 28.0017 19.1661 29.0479 19.1661 30.3352H19.166ZM50.6656 39.6681C50.6656 48.0307 43.8624 54.8347 35.499 54.8347C27.1356 54.8347 20.3325 48.0307 20.3325 39.6681V32.6682C20.3325 32.0234 20.8553 31.5015 21.4992 31.5015C22.1431 31.5015 22.6659 32.0234 22.6659 32.6682V39.6681C22.6659 46.7439 28.4233 52.5018 35.4996 52.5018C42.5758 52.5018 48.3332 46.7444 48.3332 39.6681V32.6682C48.3332 32.0234 48.8561 31.5015 49.4999 31.5015C50.1438 31.5015 50.6667 32.0234 50.6667 32.6682L50.6656 39.6681ZM52.9985 31.5015C52.3547 31.5015 51.8323 30.9801 51.8323 30.3352C51.8323 29.0479 50.7856 28.0018 49.4988 28.0018C48.2121 28.0018 47.1654 29.048 47.1654 30.3352C47.1654 30.9801 46.643 31.5015 45.9987 31.5015C45.3548 31.5015 44.8324 30.9801 44.8324 30.3352C44.8324 27.7613 46.9253 25.6683 49.4989 25.6683C52.0725 25.6683 54.1654 27.7611 54.1654 30.3352C54.1654 30.9801 53.6429 31.5015 52.9985 31.5015Z" fill="#0C4A9F"/>
<path fill-rule="evenodd" clip-rule="evenodd" d="M11.0002 18.6659V11.4922L5.26111 18.6659H11.0002Z" fill="#0C4A9F"/>
<path fill-rule="evenodd" clip-rule="evenodd" d="M59.9994 18.6659H65.7384L59.9994 11.4922V18.6659Z" fill="#0C4A9F"/>
<path fill-rule="evenodd" clip-rule="evenodd" d="M68.7277 18.666H69.3331V0H68.6494L60.3967 8.25318L68.7276 18.6665" fill="#0C4A9F"/>
<path fill-rule="evenodd" clip-rule="evenodd" d="M10.6032 8.25317L2.35056 0H1.66684V18.666H2.2723L10.6032 8.25268" fill="#0C4A9F"/>
<path fill-rule="evenodd" clip-rule="evenodd" d="M63.0169 2.33343L65.3503 0H5.65015L7.98358 2.33343H63.0166" fill="#0C4A9F"/>
</svg>
