<svg width="294" height="211" viewBox="0 0 294 211" fill="none" xmlns="http://www.w3.org/2000/svg">
<path d="M292.945 210.189H171.044C170.937 210.189 170.834 210.146 170.758 210.07C170.682 209.994 170.639 209.891 170.639 209.784C170.639 209.676 170.682 209.573 170.758 209.498C170.834 209.422 170.937 209.379 171.044 209.379H292.945C293.052 209.379 293.155 209.422 293.231 209.498C293.307 209.573 293.35 209.676 293.35 209.784C293.35 209.891 293.307 209.994 293.231 210.07C293.155 210.146 293.052 210.189 292.945 210.189Z" fill="#3F3D56"/>
<path d="M216.837 205.549H211.872L209.51 186.398L216.838 186.399L216.837 205.549Z" fill="#FFB8B8"/>
<path d="M208.325 204.131H217.901V210.16H202.296C202.296 209.368 202.452 208.584 202.755 207.853C203.058 207.121 203.502 206.457 204.062 205.897C204.622 205.337 205.287 204.893 206.018 204.59C206.75 204.287 207.534 204.131 208.325 204.131Z" fill="#2F2E41"/>
<path d="M252.863 199.927L248.346 201.99L238.241 185.552L244.906 182.508L252.863 199.927Z" fill="#FFB8B8"/>
<path d="M244.531 202.171L253.241 198.193L255.746 203.677L241.552 210.16C241.223 209.44 241.039 208.662 241.011 207.87C240.982 207.079 241.11 206.29 241.387 205.548C241.663 204.807 242.083 204.126 242.623 203.547C243.162 202.967 243.811 202.5 244.531 202.171Z" fill="#2F2E41"/>
<path d="M238.403 140.977C238.879 140.619 239.27 140.161 239.55 139.636C239.829 139.11 239.99 138.529 240.021 137.935C240.052 137.34 239.952 136.746 239.729 136.194C239.505 135.643 239.163 135.146 238.727 134.741L244.564 121.498L237.149 122.755L232.743 135.138C232.111 135.915 231.786 136.898 231.829 137.899C231.873 138.901 232.282 139.851 232.979 140.571C233.677 141.291 234.615 141.73 235.614 141.805C236.614 141.88 237.606 141.585 238.403 140.977Z" fill="#FFB8B8"/>
<path d="M216.52 200.5H211.777C211.317 200.498 210.874 200.323 210.538 200.01C210.201 199.697 209.994 199.268 209.959 198.81L204.943 129.736C204.924 129.471 204.962 129.205 205.056 128.957C205.151 128.709 205.298 128.484 205.488 128.299C205.678 128.114 205.906 127.972 206.156 127.884C206.407 127.796 206.673 127.764 206.937 127.79L236.799 130.703C237.244 130.747 237.657 130.952 237.96 131.28C238.263 131.608 238.436 132.036 238.444 132.482L239.019 162.952C239.022 163.117 239.054 163.281 239.114 163.435L250.366 192.615C250.453 192.841 250.495 193.081 250.488 193.323C250.481 193.564 250.426 193.802 250.326 194.022C250.227 194.242 250.084 194.44 249.907 194.605C249.731 194.77 249.523 194.897 249.296 194.981L244.489 196.752C244.072 196.905 243.613 196.901 243.198 196.74C242.784 196.578 242.442 196.271 242.239 195.875L228.416 168.997C228.34 168.851 228.285 168.695 228.252 168.534L225.89 157.156C225.822 156.827 225.638 156.532 225.372 156.325C225.106 156.118 224.775 156.013 224.438 156.029C224.102 156.044 223.782 156.178 223.535 156.408C223.289 156.638 223.133 156.948 223.094 157.283L218.331 198.885C218.28 199.329 218.067 199.74 217.733 200.037C217.4 200.335 216.968 200.5 216.52 200.5Z" fill="#2F2E41"/>
<path d="M218.882 75.7277C224.375 75.7277 228.829 71.2744 228.829 65.7809C228.829 60.2874 224.375 55.834 218.882 55.834C213.388 55.834 208.935 60.2874 208.935 65.7809C208.935 71.2744 213.388 75.7277 218.882 75.7277Z" fill="#FFB8B8"/>
<path d="M206.836 130.134C208.109 131.013 222.455 140.466 238.806 132.947C238.595 131.121 236.554 112.787 238.336 99.2715C239.182 92.859 236.628 86.9183 231.331 82.9724C228.453 80.8396 225.06 79.5126 221.499 79.1281C217.938 78.7436 214.339 79.3155 211.073 80.7849C210.805 80.9052 210.534 81.0303 210.262 81.1603L206.836 130.134Z" fill="#0C4A9F"/>
<path d="M238.961 132.798C238.709 132.798 238.459 132.746 238.229 132.644C237.998 132.542 237.79 132.393 237.62 132.207L235.444 129.833C235.233 129.601 235.084 129.318 235.014 129.012C234.943 128.706 234.952 128.387 235.04 128.085L240.023 111.219L232.441 95.2962C232.109 94.5962 232.027 93.8031 232.21 93.0502C232.372 92.3893 232.73 91.7929 233.238 91.3397C233.745 90.8865 234.378 90.5977 235.053 90.5115C235.728 90.4253 236.413 90.5457 237.018 90.8567C237.623 91.1678 238.12 91.655 238.442 92.2541L248.692 108.886C249.091 109.532 249.325 110.266 249.374 111.024C249.422 111.781 249.284 112.54 248.971 113.231L240.625 131.725C240.501 132 240.311 132.24 240.071 132.423C239.831 132.607 239.55 132.727 239.252 132.775C239.156 132.79 239.059 132.798 238.961 132.798Z" fill="#0C4A9F"/>
<path opacity="0.2" d="M214.197 130.641H210.223L217.16 97.998L217.56 98.0503L216.017 128.91C215.994 129.377 215.792 129.818 215.453 130.14C215.114 130.462 214.665 130.642 214.197 130.641Z" fill="black"/>
<path d="M210.52 138.756C210.911 138.307 211.199 137.778 211.363 137.205C211.527 136.633 211.564 136.032 211.471 135.444C211.378 134.856 211.157 134.295 210.824 133.802C210.49 133.309 210.053 132.894 209.542 132.588L212.502 118.422L205.51 121.191L203.771 134.219C203.314 135.111 203.2 136.139 203.45 137.11C203.701 138.08 204.299 138.925 205.13 139.485C205.962 140.044 206.97 140.279 207.964 140.144C208.957 140.01 209.866 139.516 210.52 138.756Z" fill="#FFB8B8"/>
<path d="M210.119 130.681C210.051 130.681 209.982 130.678 209.914 130.67L205.676 130.199C205.218 130.147 204.796 129.923 204.496 129.573C204.196 129.224 204.038 128.773 204.056 128.312L205.81 85.8771C205.865 84.5462 206.403 83.2808 207.323 82.3179C208.244 81.3549 209.483 80.7604 210.811 80.6454C212.138 80.5305 213.461 80.9031 214.534 81.6934C215.606 82.4837 216.354 83.6377 216.637 84.9394L217.766 90.1354L217.761 90.1722L211.917 129.129C211.854 129.56 211.637 129.955 211.307 130.24C210.977 130.525 210.555 130.682 210.119 130.681Z" fill="#0C4A9F"/>
<path d="M227.077 74.5496C226.046 74.7265 225.197 73.2907 225.069 72.2808C224.941 71.2709 225.309 70.3042 225.349 69.3009C225.389 68.2976 224.916 67.0783 223.874 66.7808C222.781 66.4689 221.769 67.3452 220.65 67.2398C219.092 67.093 218.31 65.2693 218.121 63.794C217.932 62.3187 217.784 60.5716 216.434 59.7303C215.089 58.8916 213.424 59.5019 211.878 59.528C209.265 59.5721 206.606 57.5796 205.995 55.1208C206.312 55.2122 206.65 55.1952 206.957 55.0725C207.263 54.9499 207.519 54.7286 207.686 54.4437C207.817 54.1398 207.843 53.8011 207.762 53.4804C207.68 53.1597 207.495 52.875 207.234 52.6706L210.196 54.1209C209.791 53.2971 210.403 52.3587 211.244 52.0468C212.086 51.7348 213.064 51.8749 213.993 52.0192C218.63 52.7396 224.001 52.3845 227.077 55.9203C229.208 58.3693 230.962 63.0295 230.722 66.0449C230.483 69.0603 227.077 74.5496 227.077 74.5496Z" fill="#2F2E41"/>
<path d="M114.206 186.698H7.69459C6.94298 186.698 6.22241 186.399 5.69094 185.867C5.15948 185.336 4.86052 184.615 4.85968 183.864L5.49346e-06 2.84578C-0.000728084 2.47279 0.0720147 2.10331 0.214079 1.75843C0.356143 1.41355 0.564745 1.10003 0.827978 0.835771C1.09121 0.571515 1.40392 0.361696 1.74824 0.218294C2.09257 0.0748918 2.46176 0.00071462 2.83475 0H109.346C110.098 0.000842525 110.818 0.29979 111.35 0.831254C111.881 1.36272 112.18 2.0833 112.181 2.8349L113.061 35.6279L112.252 35.6496L111.371 2.84578C111.372 2.57911 111.32 2.31491 111.219 2.06825C111.117 1.8216 110.968 1.59733 110.78 1.40827C110.592 1.21921 110.369 1.06906 110.123 0.966402C109.877 0.863743 109.613 0.810588 109.346 0.809972H2.83475C2.2979 0.810594 1.78321 1.02414 1.4036 1.40375C1.02399 1.78336 0.810445 2.29805 0.809823 2.8349L5.66951 183.853C5.66873 184.119 5.72049 184.384 5.82185 184.63C5.92321 184.877 6.07217 185.101 6.26024 185.29C6.4483 185.479 6.67177 185.629 6.91788 185.732C7.16399 185.835 7.42792 185.888 7.69459 185.888H114.206C114.743 185.888 115.257 185.674 115.637 185.295C116.017 184.915 116.23 184.4 116.231 183.864L115.285 148.641L116.095 148.619L117.041 183.853C117.041 184.226 116.969 184.595 116.827 184.94C116.684 185.285 116.476 185.598 116.213 185.863C115.949 186.127 115.637 186.337 115.292 186.48C114.948 186.624 114.579 186.698 114.206 186.698Z" fill="#CCCCCC"/>
<path d="M114.366 84.2263L113.556 84.248L113.973 99.7937L114.783 99.772L114.366 84.2263Z" fill="#CCCCCC"/>
<path d="M104.648 170.746H16.4185C15.7775 170.746 15.1629 170.491 14.7096 170.037C14.2563 169.584 14.0014 168.969 14.0006 168.328L9.97511 18.3819C9.97431 18.0636 10.0362 17.7483 10.1573 17.454C10.2784 17.1597 10.4563 16.8922 10.6808 16.6666C10.9053 16.4411 11.172 16.262 11.4658 16.1396C11.7595 16.0171 12.0745 15.9538 12.3928 15.9531H100.623C101.264 15.9539 101.878 16.2088 102.332 16.6621C102.785 17.1154 103.04 17.7299 103.041 18.371L103.77 35.6222L102.96 35.6562L102.231 18.388C102.232 18.1756 102.192 17.965 102.112 17.7683C102.032 17.5716 101.914 17.3927 101.764 17.2417C101.615 17.0908 101.437 16.9708 101.241 16.8887C101.045 16.8065 100.835 16.7639 100.623 16.7631H12.3928C11.9665 16.7636 11.5578 16.9332 11.2564 17.2346C10.955 17.536 10.7854 17.9447 10.7849 18.371L14.8105 168.318C14.8096 168.529 14.8505 168.739 14.9309 168.936C15.0113 169.132 15.1296 169.31 15.2789 169.46C15.4282 169.611 15.6058 169.73 15.8013 169.812C15.9969 169.893 16.2066 169.936 16.4185 169.936H104.648C105.075 169.936 105.483 169.766 105.785 169.465C106.086 169.163 106.256 168.755 106.256 168.328L105.735 148.641L106.545 148.62L107.066 168.318C107.067 168.636 107.005 168.951 106.884 169.246C106.763 169.54 106.585 169.807 106.36 170.033C106.136 170.258 105.869 170.437 105.575 170.56C105.282 170.682 104.967 170.746 104.648 170.746Z" fill="#CCCCCC"/>
<path d="M104.85 84.6309L104.041 84.6523L104.448 100.042L105.258 100.02L104.85 84.6309Z" fill="#CCCCCC"/>
<path d="M128.125 84.6426H24.8538C24.1062 84.6418 23.3891 84.3461 22.8584 83.8196C22.3276 83.2932 22.0259 82.5786 22.019 81.8311L20.3989 38.0693C20.3998 37.3177 20.6987 36.5971 21.2302 36.0656C21.7616 35.5342 22.4822 35.2352 23.2338 35.2344H126.505C127.253 35.2352 127.97 35.5309 128.501 36.0574C129.031 36.5838 129.333 37.2984 129.34 38.0459L130.96 81.8077C130.959 82.5593 130.66 83.2799 130.129 83.8114C129.597 84.3429 128.877 84.6418 128.125 84.6426ZM21.209 38.0479L22.8288 81.8077C22.8295 82.3446 23.043 82.8593 23.4226 83.2389C23.8022 83.6185 24.3169 83.8321 24.8538 83.8327H128.125C128.658 83.832 129.17 83.6214 129.549 83.2464C129.928 82.8714 130.144 82.3622 130.15 81.8291L128.53 38.0693C128.53 37.5324 128.316 37.0177 127.936 36.6381C127.557 36.2585 127.042 36.045 126.505 36.0443H23.2338C22.7007 36.045 22.1892 36.2556 21.8102 36.6306C21.4312 37.0056 21.2152 37.5148 21.209 38.0479Z" fill="#3F3D56"/>
<path d="M147.565 149.035H44.2932C43.5457 149.034 42.8286 148.739 42.2978 148.212C41.767 147.686 41.4654 146.971 41.4584 146.224L39.8384 102.462C39.8392 101.71 40.1382 100.99 40.6696 100.458C41.2011 99.9267 41.9217 99.6278 42.6733 99.627H145.945C146.692 99.6278 147.409 99.9235 147.94 100.45C148.471 100.976 148.772 101.691 148.779 102.439L150.399 146.2C150.399 146.952 150.1 147.673 149.568 148.204C149.037 148.735 148.316 149.034 147.565 149.035ZM40.6484 102.44L42.2683 146.2C42.2689 146.737 42.4825 147.252 42.8621 147.631C43.2417 148.011 43.7564 148.225 44.2932 148.225H147.565C148.098 148.225 148.609 148.014 148.988 147.639C149.367 147.264 149.583 146.755 149.589 146.222L147.97 102.462C147.969 101.925 147.755 101.41 147.376 101.031C146.996 100.651 146.481 100.438 145.945 100.437H42.6733C42.1401 100.438 41.6287 100.648 41.2497 101.023C40.8707 101.398 40.6547 101.907 40.6484 102.44Z" fill="#3F3D56"/>
<path d="M68.795 109.145C68.0968 109.145 67.4273 109.422 66.9336 109.916C66.4399 110.409 66.1626 111.079 66.1626 111.777C66.1626 112.475 66.4399 113.145 66.9336 113.638C67.4273 114.132 68.0968 114.409 68.795 114.409H121.443C122.141 114.409 122.811 114.132 123.305 113.638C123.798 113.145 124.076 112.475 124.076 111.777C124.076 111.079 123.798 110.409 123.305 109.916C122.811 109.422 122.141 109.145 121.443 109.145H68.795Z" fill="#0C4A9F"/>
<path d="M68.795 121.697C68.0968 121.697 67.4273 121.975 66.9336 122.468C66.4399 122.962 66.1626 123.632 66.1626 124.33C66.1626 125.028 66.4399 125.697 66.9336 126.191C67.4273 126.685 68.0968 126.962 68.795 126.962H121.443C122.141 126.962 122.811 126.685 123.305 126.191C123.798 125.697 124.076 125.028 124.076 124.33C124.076 123.632 123.798 122.962 123.305 122.468C122.811 121.975 122.141 121.697 121.443 121.697H68.795Z" fill="#0C4A9F"/>
<path d="M68.795 134.254C68.0968 134.254 67.4273 134.531 66.9336 135.025C66.4399 135.519 66.1626 136.188 66.1626 136.886C66.1626 137.584 66.4399 138.254 66.9336 138.748C67.4273 139.241 68.0968 139.519 68.795 139.519H121.443C122.141 139.519 122.811 139.241 123.305 138.748C123.798 138.254 124.076 137.584 124.076 136.886C124.076 136.188 123.798 135.519 123.305 135.025C122.811 134.531 122.141 134.254 121.443 134.254H68.795Z" fill="#0C4A9F"/>
<path d="M49.3551 44.75C48.6569 44.75 47.9873 45.0273 47.4937 45.521C47 46.0147 46.7227 46.6842 46.7227 47.3824C46.7227 48.0806 47 48.7501 47.4937 49.2438C47.9873 49.7375 48.6569 50.0148 49.3551 50.0148H102.003C102.701 50.0148 103.371 49.7375 103.865 49.2438C104.358 48.7501 104.636 48.0806 104.636 47.3824C104.636 46.6842 104.358 46.0147 103.865 45.521C103.371 45.0273 102.701 44.75 102.003 44.75H49.3551Z" fill="#0C4A9F"/>
<path d="M49.3551 57.3047C48.6569 57.3047 47.9873 57.582 47.4937 58.0757C47 58.5694 46.7227 59.2389 46.7227 59.9371C46.7227 60.6353 47 61.3048 47.4937 61.7985C47.9873 62.2922 48.6569 62.5695 49.3551 62.5695H102.003C102.701 62.5695 103.371 62.2922 103.865 61.7985C104.358 61.3048 104.636 60.6353 104.636 59.9371C104.636 59.2389 104.358 58.5694 103.865 58.0757C103.371 57.582 102.701 57.3047 102.003 57.3047H49.3551Z" fill="#0C4A9F"/>
<path d="M49.3551 69.8594C48.6569 69.8594 47.9873 70.1367 47.4937 70.6304C47 71.1241 46.7227 71.7936 46.7227 72.4918C46.7227 73.1899 47 73.8595 47.4937 74.3532C47.9873 74.8468 48.6569 75.1242 49.3551 75.1242H102.003C102.701 75.1242 103.371 74.8468 103.865 74.3532C104.358 73.8595 104.636 73.1899 104.636 72.4918C104.636 71.7936 104.358 71.1241 103.865 70.6304C103.371 70.1367 102.701 69.8594 102.003 69.8594H49.3551Z" fill="#0C4A9F"/>
<path d="M56.8477 12.1505C59.0844 12.1505 60.8976 10.3373 60.8976 8.10064C60.8976 5.86396 59.0844 4.05078 56.8477 4.05078C54.611 4.05078 52.7979 5.86396 52.7979 8.10064C52.7979 10.3373 54.611 12.1505 56.8477 12.1505Z" fill="#E6E6E6"/>
</svg>
