<svg width="21" height="24" viewBox="0 0 21 24" fill="none" xmlns="http://www.w3.org/2000/svg">
<path d="M0 11.5598C0 8.73374 0 5.90772 0 3.0817C0 1.27171 1.27171 0 3.0817 0C8.02724 0 12.9728 0 17.9183 0C19.7283 0 21 1.27171 21 3.0817C21 8.74047 21 14.406 21 20.0647C21 21.8747 19.7283 23.1464 17.9183 23.1464C12.9728 23.1464 8.02724 23.1464 3.0817 23.1464C1.27171 23.1464 0 21.8747 0 20.0647C0 17.2253 0 14.3925 0 11.5598ZM5.64531 17.7434C5.27523 17.3666 4.9388 17.0099 4.58892 16.6735C4.25921 16.3573 3.76129 16.364 3.45178 16.6735C3.14899 16.9763 3.12881 17.4742 3.43159 17.7905C3.96988 18.3489 4.5149 18.8939 5.07337 19.4322C5.38289 19.7283 5.82025 19.7216 6.14995 19.439C6.23742 19.365 6.31817 19.2775 6.40564 19.1967C7.23326 18.3826 8.04742 17.555 8.8885 16.7542C9.23839 16.4178 9.30567 15.9401 8.99616 15.5969C8.68664 15.247 8.18199 15.2336 7.82538 15.5633C7.68408 15.6979 7.54951 15.8324 7.41493 15.9737C6.83627 16.5457 6.25761 17.1311 5.64531 17.7434ZM5.65204 11.8154C5.30888 11.4656 4.9859 11.1359 4.6562 10.8129C4.27267 10.4361 3.78148 10.4159 3.44505 10.7591C3.12208 11.0955 3.14226 11.5799 3.51234 11.95C3.98334 12.4277 4.46107 12.9055 4.9388 13.3765C5.40308 13.8408 5.82698 13.8408 6.29125 13.3832C7.17943 12.5152 8.08106 11.6472 8.94906 10.7591C9.0769 10.6312 9.13746 10.3822 9.14419 10.1871C9.15091 9.85742 8.96251 9.61519 8.64627 9.49407C8.31657 9.36623 8.01378 9.43352 7.76482 9.68247C7.07177 10.389 6.37873 11.082 5.65204 11.8154ZM5.68568 5.89427C5.34252 5.55111 5.02627 5.2214 4.69657 4.89843C4.38033 4.58891 3.89587 4.60237 3.58635 4.91189C3.28356 5.21468 3.25665 5.69914 3.55271 6.00192C4.05735 6.52003 4.56873 7.0314 5.08683 7.53605C5.42326 7.85902 5.86735 7.85902 6.22397 7.54278C6.28452 7.48895 6.34508 7.42839 6.40564 7.36783C7.19289 6.58731 7.98013 5.80679 8.77411 5.02628C8.8885 4.91189 9.04326 4.81096 9.11727 4.67639C9.29894 4.35341 9.19129 3.92951 8.90868 3.70074C8.59917 3.45851 8.16181 3.45851 7.86575 3.72765C7.52259 4.05062 7.19962 4.38706 6.86319 4.72349C6.4662 5.10702 6.08267 5.49055 5.68568 5.89427ZM14.2579 6.72861C15.1327 6.72861 16.0074 6.72861 16.8821 6.72861C17.4002 6.72861 17.7635 6.39891 17.7703 5.92791C17.777 5.45018 17.4069 5.11375 16.8754 5.11375C15.1327 5.11375 13.3967 5.11375 11.654 5.11375C11.1359 5.11375 10.7725 5.44345 10.7658 5.90772C10.7591 6.37872 11.1359 6.72188 11.6607 6.72188C12.5287 6.72861 13.3899 6.72861 14.2579 6.72861ZM14.2512 12.6431C15.1327 12.6431 16.0141 12.6498 16.9023 12.6431C17.4069 12.6431 17.7635 12.3134 17.7703 11.8558C17.777 11.3915 17.4204 11.0282 16.909 11.0282C15.1528 11.0215 13.3967 11.0215 11.6405 11.0282C11.479 11.0282 11.3041 11.0753 11.1628 11.1493C10.8465 11.3175 10.712 11.6876 10.7994 12.0375C10.8869 12.3806 11.183 12.6296 11.553 12.6296C12.4547 12.6498 13.3496 12.6431 14.2512 12.6431ZM14.2714 16.9628C13.3967 16.9628 12.5219 16.9561 11.6472 16.9628C11.1291 16.9628 10.7658 17.2993 10.7658 17.7635C10.7658 18.2211 11.1359 18.5777 11.6405 18.5777C13.3899 18.5844 15.1394 18.5844 16.8888 18.5777C17.0436 18.5777 17.2118 18.5373 17.3464 18.47C17.6626 18.3153 17.8308 17.9318 17.7501 17.5953C17.6626 17.2387 17.3665 16.9763 16.9965 16.9696C16.0881 16.9561 15.1798 16.9628 14.2714 16.9628Z" fill="white"/>
</svg>
