<svg width="21" height="19" viewBox="0 0 21 19" fill="none" xmlns="http://www.w3.org/2000/svg">
<path d="M10.5 10.7499C12.1569 10.7499 13.5 9.40676 13.5 7.74991C13.5 6.09305 12.1569 4.74991 10.5 4.74991C8.84315 4.74991 7.5 6.09305 7.5 7.74991C7.5 9.40676 8.84315 10.7499 10.5 10.7499Z" fill="white"/>
<path d="M19.5 16.7499H11.25V15.2124C13.1645 15.02 14.9318 14.0991 16.1864 12.6403C17.441 11.1815 18.0869 9.29624 17.9906 7.37453C17.8943 5.45282 17.063 3.64164 15.6688 2.31557C14.2746 0.989505 12.4241 0.25 10.5 0.25C8.57588 0.25 6.72535 0.989505 5.33115 2.31557C3.93695 3.64164 3.10573 5.45282 3.0094 7.37453C2.91308 9.29624 3.55901 11.1815 4.81362 12.6403C6.06822 14.0991 7.83552 15.02 9.75 15.2124V16.7499H1.5C1.30109 16.7499 1.11032 16.8289 0.96967 16.9696C0.829018 17.1102 0.75 17.301 0.75 17.4999C0.75 17.6988 0.829018 17.8896 0.96967 18.0302C1.11032 18.1709 1.30109 18.2499 1.5 18.2499H19.5C19.6989 18.2499 19.8897 18.1709 20.0303 18.0302C20.171 17.8896 20.25 17.6988 20.25 17.4999C20.25 17.301 20.171 17.1102 20.0303 16.9696C19.8897 16.8289 19.6989 16.7499 19.5 16.7499ZM6 7.74991C6 6.85989 6.26392 5.98986 6.75839 5.24984C7.25285 4.50982 7.95566 3.93304 8.77792 3.59245C9.60019 3.25185 10.505 3.16274 11.3779 3.33637C12.2508 3.51001 13.0526 3.93859 13.682 4.56792C14.3113 5.19726 14.7399 5.99908 14.9135 6.872C15.0872 7.74491 14.9981 8.64971 14.6575 9.47198C14.3169 10.2942 13.7401 10.9971 13.0001 11.4915C12.26 11.986 11.39 12.2499 10.5 12.2499C9.30653 12.2499 8.16193 11.7758 7.31802 10.9319C6.47411 10.088 6 8.94338 6 7.74991Z" fill="white"/>
</svg>
