<svg width="25" height="24" viewBox="0 0 25 24" fill="none" xmlns="http://www.w3.org/2000/svg">
<path d="M20 3H5C4.60218 3 4.22064 3.15804 3.93934 3.43934C3.65804 3.72064 3.5 4.10218 3.5 4.5V19.5C3.5 19.8978 3.65804 20.2794 3.93934 20.5607C4.22064 20.842 4.60218 21 5 21H15.1906C15.3876 21.0002 15.5826 20.9613 15.7644 20.8857C15.9462 20.8101 16.1113 20.6992 16.25 20.5594L21.0594 15.75C21.1992 15.6113 21.3101 15.4462 21.3857 15.2644C21.4613 15.0826 21.5002 14.8876 21.5 14.6906V4.5C21.5 4.10218 21.342 3.72064 21.0607 3.43934C20.7794 3.15804 20.3978 3 20 3ZM9.5 8.25H15.5C15.6989 8.25 15.8897 8.32902 16.0303 8.46967C16.171 8.61032 16.25 8.80109 16.25 9C16.25 9.19891 16.171 9.38968 16.0303 9.53033C15.8897 9.67098 15.6989 9.75 15.5 9.75H9.5C9.30109 9.75 9.11032 9.67098 8.96967 9.53033C8.82902 9.38968 8.75 9.19891 8.75 9C8.75 8.80109 8.82902 8.61032 8.96967 8.46967C9.11032 8.32902 9.30109 8.25 9.5 8.25ZM12.5 15.75H9.5C9.30109 15.75 9.11032 15.671 8.96967 15.5303C8.82902 15.3897 8.75 15.1989 8.75 15C8.75 14.8011 8.82902 14.6103 8.96967 14.4697C9.11032 14.329 9.30109 14.25 9.5 14.25H12.5C12.6989 14.25 12.8897 14.329 13.0303 14.4697C13.171 14.6103 13.25 14.8011 13.25 15C13.25 15.1989 13.171 15.3897 13.0303 15.5303C12.8897 15.671 12.6989 15.75 12.5 15.75ZM9.5 12.75C9.30109 12.75 9.11032 12.671 8.96967 12.5303C8.82902 12.3897 8.75 12.1989 8.75 12C8.75 11.8011 8.82902 11.6103 8.96967 11.4697C9.11032 11.329 9.30109 11.25 9.5 11.25H15.5C15.6989 11.25 15.8897 11.329 16.0303 11.4697C16.171 11.6103 16.25 11.8011 16.25 12C16.25 12.1989 16.171 12.3897 16.0303 12.5303C15.8897 12.671 15.6989 12.75 15.5 12.75H9.5ZM15.5 19.1906V15H19.6906L15.5 19.1906Z" fill="white"/>
</svg>
