<svg width="21" height="19" viewBox="0 0 17 21" fill="none" xmlns="http://www.w3.org/2000/svg">
<path d="M15.25 2H13.75V1.25C13.75 1.05109 13.671 0.860322 13.5303 0.71967C13.3897 0.579018 13.1989 0.5 13 0.5C12.8011 0.5 12.6103 0.579018 12.4697 0.71967C12.329 0.860322 12.25 1.05109 12.25 1.25V2H9.25V1.25C9.25 1.05109 9.17098 0.860322 9.03033 0.71967C8.88968 0.579018 8.69891 0.5 8.5 0.5C8.30109 0.5 8.11032 0.579018 7.96967 0.71967C7.82902 0.860322 7.75 1.05109 7.75 1.25V2H4.75V1.25C4.75 1.05109 4.67098 0.860322 4.53033 0.71967C4.38968 0.579018 4.19891 0.5 4 0.5C3.80109 0.5 3.61032 0.579018 3.46967 0.71967C3.32902 0.860322 3.25 1.05109 3.25 1.25V2H1.75C1.35218 2 0.970644 2.15804 0.68934 2.43934C0.408035 2.72064 0.25 3.10218 0.25 3.5V17.75C0.25 18.5456 0.56607 19.3087 1.12868 19.8713C1.69129 20.4339 2.45435 20.75 3.25 20.75H13.75C14.5456 20.75 15.3087 20.4339 15.8713 19.8713C16.4339 19.3087 16.75 18.5456 16.75 17.75V3.5C16.75 3.10218 16.592 2.72064 16.3107 2.43934C16.0294 2.15804 15.6478 2 15.25 2ZM11.5 14.75H5.5C5.30109 14.75 5.11032 14.671 4.96967 14.5303C4.82902 14.3897 4.75 14.1989 4.75 14C4.75 13.8011 4.82902 13.6103 4.96967 13.4697C5.11032 13.329 5.30109 13.25 5.5 13.25H11.5C11.6989 13.25 11.8897 13.329 12.0303 13.4697C12.171 13.6103 12.25 13.8011 12.25 14C12.25 14.1989 12.171 14.3897 12.0303 14.5303C11.8897 14.671 11.6989 14.75 11.5 14.75ZM11.5 11.75H5.5C5.30109 11.75 5.11032 11.671 4.96967 11.5303C4.82902 11.3897 4.75 11.1989 4.75 11C4.75 10.8011 4.82902 10.6103 4.96967 10.4697C5.11032 10.329 5.30109 10.25 5.5 10.25H11.5C11.6989 10.25 11.8897 10.329 12.0303 10.4697C12.171 10.6103 12.25 10.8011 12.25 11C12.25 11.1989 12.171 11.3897 12.0303 11.5303C11.8897 11.671 11.6989 11.75 11.5 11.75Z" fill="white"/>
</svg>
