<svg width="25" height="24" viewBox="0 0 25 24" fill="none" xmlns="http://www.w3.org/2000/svg">
<path d="M9.875 10.9219C9.98936 10.8548 10.0842 10.7589 10.1499 10.6437C10.2157 10.5286 10.2502 10.3982 10.25 10.2656V3.51564C10.251 3.39483 10.2229 3.27555 10.1679 3.16795C10.113 3.06036 10.0328 2.96763 9.93433 2.89767C9.83583 2.82771 9.72189 2.78257 9.60219 2.76612C9.4825 2.74966 9.3606 2.76236 9.24688 2.80314C7.34809 3.47954 5.70473 4.72621 4.54173 6.37253C3.37874 8.01885 2.75294 9.98435 2.75 12C2.75102 12.5973 2.80434 13.1933 2.90938 13.7813C2.93191 13.8987 2.98187 14.0092 3.05518 14.1037C3.12849 14.1982 3.22308 14.274 3.33125 14.325C3.43107 14.3721 3.53967 14.3976 3.65 14.4C3.78189 14.3992 3.91124 14.3636 4.025 14.2969L9.875 10.9219ZM8.75 4.65002V9.83439L4.25937 12.4313C4.25 12.2813 4.25 12.1406 4.25 12C4.25288 10.4798 4.67432 8.98975 5.4681 7.69324C6.26188 6.39673 7.39735 5.34383 8.75 4.65002Z" fill="white"/>
<path d="M20.9656 7.1625C20.9559 7.15204 20.9494 7.13903 20.9469 7.125L20.9094 7.07812C20.0514 5.60906 18.8236 4.39034 17.3482 3.54326C15.8728 2.69619 14.2013 2.25031 12.5 2.25C12.3011 2.25 12.1103 2.32902 11.9697 2.46967C11.829 2.61032 11.75 2.80109 11.75 3V11.5688L4.33437 15.8531C4.24794 15.9009 4.17193 15.9655 4.11081 16.043C4.0497 16.1206 4.00472 16.2096 3.97851 16.3048C3.95231 16.4 3.94541 16.4995 3.95822 16.5974C3.97103 16.6954 4.0033 16.7897 4.05312 16.875V16.8937L4.08125 16.9406C5.16269 18.7919 6.82419 20.2351 8.80857 21.0468C10.793 21.8585 12.9896 21.9936 15.0584 21.431C17.1273 20.8684 18.953 19.6396 20.2531 17.9347C21.5531 16.2298 22.255 14.144 22.25 12C22.2523 10.3029 21.8094 8.63494 20.9656 7.1625Z" fill="white"/>
</svg>
