<svg width="25" height="24" viewBox="0 0 25 24" fill="none" xmlns="http://www.w3.org/2000/svg">
<path d="M22.25 6H20V5.25C20 4.85218 19.8419 4.47064 19.5606 4.18934C19.2793 3.90804 18.8978 3.75 18.5 3.75H6.49998C6.10215 3.75 5.72062 3.90804 5.43931 4.18934C5.15801 4.47064 4.99998 4.85218 4.99998 5.25V6H2.7406C2.34278 6 1.96124 6.15804 1.67994 6.43934C1.39864 6.72064 1.2406 7.10218 1.2406 7.5V9C1.2406 9.99456 1.63569 10.9484 2.33895 11.6517C3.04221 12.3549 3.99604 12.75 4.9906 12.75H5.3656C6.27498 15.5531 8.75935 17.6531 11.75 17.9625V20.25H9.49998C9.30106 20.25 9.1103 20.329 8.96965 20.4697C8.82899 20.6103 8.74997 20.8011 8.74997 21C8.74997 21.1989 8.82899 21.3897 8.96965 21.5303C9.1103 21.671 9.30106 21.75 9.49998 21.75H15.5C15.6989 21.75 15.8897 21.671 16.0303 21.5303C16.171 21.3897 16.25 21.1989 16.25 21C16.25 20.8011 16.171 20.6103 16.0303 20.4697C15.8897 20.329 15.6989 20.25 15.5 20.25H13.25V17.9625C14.7114 17.819 16.0981 17.2481 17.2369 16.321C18.3757 15.394 19.2161 14.1519 19.6531 12.75H20C20.9945 12.75 21.9484 12.3549 22.6516 11.6517C23.3549 10.9484 23.75 9.99456 23.75 9V7.5C23.75 7.10218 23.5919 6.72064 23.3106 6.43934C23.0293 6.15804 22.6478 6 22.25 6ZM4.9906 11.25C4.39386 11.25 3.82157 11.0129 3.39961 10.591C2.97765 10.169 2.7406 9.59674 2.7406 9V7.5H4.99998V10.4156C5.00132 10.6944 5.01696 10.9729 5.04685 11.25H4.9906ZM22.25 9C22.2475 9.59598 22.0097 10.1668 21.5882 10.5883C21.1668 11.0097 20.596 11.2475 20 11.25H19.9625C19.9892 11.0009 20.0017 10.7505 20 10.5V7.5H22.25V9Z" fill="white"/>
</svg>
