<svg width="21" height="18" viewBox="0 0 21 18" fill="none" xmlns="http://www.w3.org/2000/svg">
<path d="M19.875 15.75H19.125V0.75C19.125 0.551088 19.046 0.360322 18.9053 0.21967C18.7647 0.0790178 18.5739 0 18.375 0H13.125C12.9261 0 12.7353 0.0790178 12.5947 0.21967C12.454 0.360322 12.375 0.551088 12.375 0.75V4.5H7.875C7.67609 4.5 7.48532 4.57902 7.34467 4.71967C7.20402 4.86032 7.125 5.05109 7.125 5.25V9H2.625C2.42609 9 2.23532 9.07902 2.09467 9.21967C1.95402 9.36032 1.875 9.55109 1.875 9.75V15.75H1.125C0.926088 15.75 0.735322 15.829 0.59467 15.9697C0.454018 16.1103 0.375 16.3011 0.375 16.5C0.375 16.6989 0.454018 16.8897 0.59467 17.0303C0.735322 17.171 0.926088 17.25 1.125 17.25H19.875C20.0739 17.25 20.2647 17.171 20.4053 17.0303C20.546 16.8897 20.625 16.6989 20.625 16.5C20.625 16.3011 20.546 16.1103 20.4053 15.9697C20.2647 15.829 20.0739 15.75 19.875 15.75ZM8.625 6H12.375V15.75H8.625V6ZM3.375 10.5H7.125V15.75H3.375V10.5Z" fill="white"/>
</svg>
