<svg width="41" height="40" viewBox="0 0 41 40" fill="none" xmlns="http://www.w3.org/2000/svg">
<rect x="0.5" width="40" height="40" rx="20" fill="#0C4A9F"/>
<path d="M20.5 20.7499C22.1569 20.7499 23.5 19.4068 23.5 17.7499C23.5 16.0931 22.1569 14.7499 20.5 14.7499C18.8431 14.7499 17.5 16.0931 17.5 17.7499C17.5 19.4068 18.8431 20.7499 20.5 20.7499Z" fill="white"/>
<path d="M29.5 26.7499H21.25V25.2124C23.1645 25.02 24.9318 24.0991 26.1864 22.6403C27.441 21.1815 28.0869 19.2962 27.9906 17.3745C27.8943 15.4528 27.063 13.6416 25.6688 12.3156C24.2746 10.9895 22.4241 10.25 20.5 10.25C18.5759 10.25 16.7254 10.9895 15.3312 12.3156C13.937 13.6416 13.1057 15.4528 13.0094 17.3745C12.9131 19.2962 13.559 21.1815 14.8136 22.6403C16.0682 24.0991 17.8355 25.02 19.75 25.2124V26.7499H11.5C11.3011 26.7499 11.1103 26.8289 10.9697 26.9696C10.829 27.1102 10.75 27.301 10.75 27.4999C10.75 27.6988 10.829 27.8896 10.9697 28.0302C11.1103 28.1709 11.3011 28.2499 11.5 28.2499H29.5C29.6989 28.2499 29.8897 28.1709 30.0303 28.0302C30.171 27.8896 30.25 27.6988 30.25 27.4999C30.25 27.301 30.171 27.1102 30.0303 26.9696C29.8897 26.8289 29.6989 26.7499 29.5 26.7499ZM16 17.7499C16 16.8599 16.2639 15.9899 16.7584 15.2498C17.2529 14.5098 17.9557 13.933 18.7779 13.5924C19.6002 13.2519 20.505 13.1627 21.3779 13.3364C22.2508 13.51 23.0526 13.9386 23.682 14.5679C24.3113 15.1973 24.7399 15.9991 24.9135 16.872C25.0872 17.7449 24.9981 18.6497 24.6575 19.472C24.3169 20.2942 23.7401 20.9971 23.0001 21.4915C22.26 21.986 21.39 22.2499 20.5 22.2499C19.3065 22.2499 18.1619 21.7758 17.318 20.9319C16.4741 20.088 16 18.9434 16 17.7499Z" fill="white"/>
</svg>
