<svg width="41" height="40" viewBox="0 0 41 40" fill="none" xmlns="http://www.w3.org/2000/svg">
<rect x="0.5" width="40" height="40" rx="20" fill="#0C4A9F"/>
<path d="M27.25 11H25.75V10.25C25.75 10.0511 25.671 9.86032 25.5303 9.71967C25.3897 9.57902 25.1989 9.5 25 9.5C24.8011 9.5 24.6103 9.57902 24.4697 9.71967C24.329 9.86032 24.25 10.0511 24.25 10.25V11H21.25V10.25C21.25 10.0511 21.171 9.86032 21.0303 9.71967C20.8897 9.57902 20.6989 9.5 20.5 9.5C20.3011 9.5 20.1103 9.57902 19.9697 9.71967C19.829 9.86032 19.75 10.0511 19.75 10.25V11H16.75V10.25C16.75 10.0511 16.671 9.86032 16.5303 9.71967C16.3897 9.57902 16.1989 9.5 16 9.5C15.8011 9.5 15.6103 9.57902 15.4697 9.71967C15.329 9.86032 15.25 10.0511 15.25 10.25V11H13.75C13.3522 11 12.9706 11.158 12.6893 11.4393C12.408 11.7206 12.25 12.1022 12.25 12.5V26.75C12.25 27.5456 12.5661 28.3087 13.1287 28.8713C13.6913 29.4339 14.4544 29.75 15.25 29.75H25.75C26.5456 29.75 27.3087 29.4339 27.8713 28.8713C28.4339 28.3087 28.75 27.5456 28.75 26.75V12.5C28.75 12.1022 28.592 11.7206 28.3107 11.4393C28.0294 11.158 27.6478 11 27.25 11ZM23.5 23.75H17.5C17.3011 23.75 17.1103 23.671 16.9697 23.5303C16.829 23.3897 16.75 23.1989 16.75 23C16.75 22.8011 16.829 22.6103 16.9697 22.4697C17.1103 22.329 17.3011 22.25 17.5 22.25H23.5C23.6989 22.25 23.8897 22.329 24.0303 22.4697C24.171 22.6103 24.25 22.8011 24.25 23C24.25 23.1989 24.171 23.3897 24.0303 23.5303C23.8897 23.671 23.6989 23.75 23.5 23.75ZM23.5 20.75H17.5C17.3011 20.75 17.1103 20.671 16.9697 20.5303C16.829 20.3897 16.75 20.1989 16.75 20C16.75 19.8011 16.829 19.6103 16.9697 19.4697C17.1103 19.329 17.3011 19.25 17.5 19.25H23.5C23.6989 19.25 23.8897 19.329 24.0303 19.4697C24.171 19.6103 24.25 19.8011 24.25 20C24.25 20.1989 24.171 20.3897 24.0303 20.5303C23.8897 20.671 23.6989 20.75 23.5 20.75Z" fill="white"/>
</svg>
