<svg width="20" height="18" viewBox="0 0 20 18" fill="none" xmlns="http://www.w3.org/2000/svg">
<path d="M9.29427 4.68233V1.00739C9.29427 0.616643 9.60594 0.291016 10.0001 0.291016C10.353 0.291016 10.652 0.564633 10.6994 0.911214L10.7059 1.00739V4.68233L15.0875 4.68261C17.2692 4.68261 19.0616 6.46915 19.1622 8.69722L19.1667 8.89493V13.5143C19.1667 15.758 17.4366 17.5997 15.2874 17.7031L15.0967 17.7077H4.90334C2.72168 17.7077 0.937926 15.9301 0.837778 13.6938L0.833344 13.4954L0.833344 8.88547C0.833344 6.64178 2.55476 4.79113 4.70351 4.68721L4.89418 4.68261H9.29418V10.5515L7.82751 9.03692C7.55251 8.75294 7.10334 8.75294 6.82834 9.03692C6.69084 9.17891 6.62668 9.36823 6.62668 9.55754C6.62668 9.70143 6.66774 9.85137 6.75457 9.97828L6.82834 10.0687L9.49584 12.8327C9.62418 12.9747 9.80751 13.0505 10 13.0505C10.1528 13.0505 10.3056 12.9979 10.4265 12.8982L10.495 12.8327L13.1625 10.0687C13.4375 9.78473 13.4375 9.3209 13.1625 9.03692C12.9125 8.77876 12.5186 8.75529 12.2424 8.96651L12.1633 9.03692L10.7058 10.5515V4.68261L9.29427 4.68233Z" fill="white"/>
</svg>
