<svg width="24" height="24" viewBox="0 0 24 24" fill="none" xmlns="http://www.w3.org/2000/svg">
<path fill-rule="evenodd" clip-rule="evenodd" d="M22 12.0007C22 17.5197 17.52 22.0007 12 22.0007C6.47 22.0007 2 17.5197 2 12.0007C2 6.47973 6.47 2.00073 12 2.00073C17.52 2.00073 22 6.47973 22 12.0007ZM12.88 15.7907C12.88 16.2697 12.48 16.6707 12 16.6707C11.52 16.6707 11.13 16.2697 11.13 15.7907L11.13 11.3707C11.13 10.8897 11.52 10.5007 12 10.5007C12.48 10.5007 12.88 10.8897 12.88 11.3707L12.88 15.7907ZM11.99 7.31973C12.48 7.31973 12.87 7.71973 12.87 8.19973C12.87 8.67973 12.48 9.06973 12 9.06973C11.51 9.06973 11.12 8.67973 11.12 8.19973C11.12 7.71973 11.51 7.31973 11.99 7.31973Z" fill="white"/>
</svg>
