<svg width="24" height="24" viewBox="0 0 24 24" fill="none" xmlns="http://www.w3.org/2000/svg">
<path d="M20.5875 3.8255C20.4618 3.76546 20.3221 3.74072 20.1834 3.75393C20.0447 3.76714 19.9121 3.8178 19.8 3.9005C17.1469 5.888 14.8969 4.93175 12.3 3.81612C9.70312 2.7005 6.64688 1.388 3.3 3.9005H3.29062L3.25313 3.92862L3.23438 3.94737L3.20625 3.9755L3.17813 4.00362L3.15938 4.03175L3.13125 4.05987C3.13125 4.06925 3.12188 4.07862 3.1125 4.088L3.09375 4.1255C3.09375 4.13487 3.08438 4.14425 3.08438 4.15362C3.07469 4.16409 3.06818 4.1771 3.06563 4.19112C3.05625 4.2005 3.05625 4.20987 3.04688 4.22862C3.0375 4.24737 3.0375 4.24737 3.0375 4.25675C3.0375 4.26612 3.02812 4.28487 3.02812 4.29425C3.02812 4.30362 3.01875 4.313 3.01875 4.32237C3.01875 4.33175 3.00937 4.3505 3.00937 4.35987V4.40675C3.00937 4.41612 3 4.43487 3 4.44425V20.2505C3 20.4494 3.07902 20.6402 3.21967 20.7808C3.36032 20.9215 3.55109 21.0005 3.75 21.0005C3.94891 21.0005 4.13968 20.9215 4.28033 20.7808C4.42098 20.6402 4.5 20.4494 4.5 20.2505V16.1349C7.02188 14.438 9.19688 15.3661 11.7 16.4442C13.2281 17.0911 14.8687 17.7942 16.6312 17.7942C17.925 17.7942 19.2844 17.4192 20.7 16.3505C20.7926 16.2801 20.8678 16.1895 20.9198 16.0854C20.9719 15.9814 20.9993 15.8668 21 15.7505V4.5005C20.9989 4.36117 20.9599 4.22476 20.8872 4.10587C20.8146 3.98697 20.711 3.89006 20.5875 3.8255Z" fill="#0C4A9F"/>
</svg>
