<svg width="24" height="24" viewBox="0 0 24 24" fill="none" xmlns="http://www.w3.org/2000/svg">
<path d="M11.2315 20.138C11.19 20.3007 11.0957 20.4452 10.9634 20.5486C10.8311 20.6521 10.6682 20.7088 10.5002 20.7098C10.4397 20.7096 10.3797 20.7001 10.3221 20.6817L7.49084 19.9786C7.26119 19.9206 7.04893 19.808 6.87209 19.6505L4.76271 17.813C4.68884 17.7489 4.62831 17.671 4.58456 17.5836C4.54081 17.4962 4.51471 17.401 4.50775 17.3035C4.50078 17.206 4.51309 17.1081 4.54397 17.0153C4.57485 16.9226 4.62369 16.8368 4.68771 16.763C4.75173 16.6891 4.82967 16.6285 4.91709 16.5848C5.0045 16.5411 5.09968 16.515 5.19718 16.508C5.29468 16.501 5.3926 16.5133 5.48534 16.5442C5.57809 16.5751 5.66384 16.6239 5.73771 16.688L7.85646 18.5255L10.6783 19.2286C10.8713 19.2774 11.0374 19.4001 11.1409 19.5701C11.2443 19.7402 11.2769 19.9441 11.2315 20.138ZM23.6627 11.213C23.6011 11.4018 23.5021 11.5763 23.3716 11.726C23.2412 11.8758 23.0819 11.9978 22.9033 12.0848L20.719 13.1817L19.3221 14.8223H19.3033C19.3033 14.8317 19.294 14.8317 19.294 14.8411H19.2846L15.8346 18.2911C15.5487 18.5706 15.1656 18.7285 14.7658 18.7317C14.6456 18.7306 14.526 18.7149 14.4096 18.6848L8.97209 17.3442C8.76678 17.2963 8.57467 17.2034 8.40959 17.0723L3.34709 13.1161L1.09709 11.9911C0.737678 11.8089 0.464755 11.4922 0.337711 11.1098C0.27765 10.9204 0.255837 10.7209 0.273541 10.5229C0.291244 10.325 0.348111 10.1325 0.440836 9.9567L2.74709 5.54108C2.92934 5.19359 3.23975 4.93074 3.61252 4.80823C3.98528 4.68573 4.39111 4.7132 4.74396 4.88483L6.84396 5.93483L11.4096 4.60358C11.7518 4.51031 12.1157 4.53678 12.4408 4.67858L15.5346 6.08483H17.0721L19.2565 4.98795C19.6078 4.81316 20.0136 4.78299 20.3869 4.90392C20.7602 5.02485 21.0712 5.28724 21.2533 5.63483L23.5596 10.0505C23.6526 10.2278 23.7096 10.4219 23.7273 10.6214C23.745 10.8209 23.723 11.022 23.6627 11.213ZM17.5971 14.4192L14.6346 12.263L13.8752 12.8348C13.2249 13.3188 12.4359 13.5802 11.6252 13.5802C10.8146 13.5802 10.0255 13.3188 9.37521 12.8348L8.86896 12.4505C8.69601 12.3224 8.55285 12.1583 8.44931 11.9697C8.34577 11.781 8.28432 11.5721 8.26918 11.3575C8.25403 11.1428 8.28556 10.9274 8.36158 10.726C8.43761 10.5247 8.55633 10.3422 8.70959 10.1911L12.3752 6.51608L12.544 6.37545L11.8221 6.04733L7.25646 7.37858L4.70646 12.2723L9.33771 15.8911L14.7658 17.2505L17.5971 14.4192ZM19.3502 12.4786L16.8002 7.58483H13.4346L9.76896 11.2505L10.2752 11.6348C10.6665 11.9227 11.1395 12.0779 11.6252 12.0779C12.1109 12.0779 12.584 11.9227 12.9752 11.6348L14.1752 10.7348C14.3032 10.6383 14.4587 10.5853 14.619 10.5836C14.7793 10.5819 14.9359 10.6316 15.0658 10.7255L18.6283 13.313L19.3502 12.4786Z" fill="#0C4A9F"/>
</svg>
