<svg width="24" height="24" viewBox="0 0 24 24" fill="none" xmlns="http://www.w3.org/2000/svg">
<path d="M22.5 19.4997H21V10.8279C21.0005 10.6188 20.9565 10.4119 20.8708 10.2212C20.7851 10.0304 20.6598 9.86013 20.5031 9.72161L13.0031 2.90599C12.7281 2.65367 12.3685 2.51367 11.9953 2.51367C11.6221 2.51367 11.2625 2.65367 10.9875 2.90599L3.4875 9.72161C3.33394 9.8621 3.2113 10.033 3.12737 10.2235C3.04344 10.4139 3.00007 10.6197 3 10.8279V19.4997H1.5C1.30109 19.4997 1.11032 19.5788 0.96967 19.7194C0.829018 19.8601 0.75 20.0508 0.75 20.2497C0.75 20.4487 0.829018 20.6394 0.96967 20.7801C1.11032 20.9207 1.30109 20.9997 1.5 20.9997H22.5C22.6989 20.9997 22.8897 20.9207 23.0303 20.7801C23.171 20.6394 23.25 20.4487 23.25 20.2497C23.25 20.0508 23.171 19.8601 23.0303 19.7194C22.8897 19.5788 22.6989 19.4997 22.5 19.4997ZM14.25 19.4997H9.75V14.9997C9.75 14.8008 9.82902 14.6101 9.96967 14.4694C10.1103 14.3288 10.3011 14.2497 10.5 14.2497H13.5C13.6989 14.2497 13.8897 14.3288 14.0303 14.4694C14.171 14.6101 14.25 14.8008 14.25 14.9997V19.4997Z" fill="#0C4A9F"/>
</svg>
