<svg width="18" height="20" viewBox="0 0 18 20" fill="none" xmlns="http://www.w3.org/2000/svg">
<path d="M16.4618 19.1184C12.1061 19.1184 7.75047 19.1184 3.39482 19.1184C3.37988 19.1085 3.36495 19.0935 3.34504 19.0935C2.38928 18.8695 1.87158 18.2224 1.87158 17.2418C1.87158 15.3402 1.87158 13.4337 1.87158 11.5321C1.87158 11.4674 1.87158 11.4027 1.87158 11.338C3.78807 11.338 5.67469 11.338 7.56131 11.338C7.56131 11.6665 7.56131 11.9801 7.56131 12.3037C7.16308 12.3037 6.7748 12.3037 6.39151 12.3037C6.09781 12.3037 5.89372 12.4381 5.80909 12.682C5.72447 12.9359 5.81407 13.14 5.99825 13.3192C7.15312 14.4691 8.30302 15.6239 9.45789 16.7738C9.78145 17.0974 10.0851 17.1024 10.4087 16.7788C11.0558 16.1317 11.7029 15.4846 12.35 14.8374C12.8677 14.3197 13.3904 13.802 13.9081 13.2794C14.0873 13.1002 14.1471 12.8861 14.0525 12.6472C13.9579 12.4082 13.7588 12.3037 13.5099 12.2987C13.4352 12.2987 13.3606 12.2987 13.2859 12.2987C12.9623 12.2987 12.6437 12.2987 12.3003 12.2987C12.3003 11.9055 12.3003 11.5321 12.3052 11.1638C12.3052 11.1239 12.35 11.0791 12.3849 11.0542C12.9673 10.661 13.2112 10.1084 13.2062 9.41652C13.1963 8.29151 13.2013 7.16651 13.2013 6.03653C13.2013 5.96684 13.2062 5.89715 13.2112 5.8623C13.5447 5.88719 13.8434 5.92204 14.1471 5.92204C14.829 5.93199 15.516 5.91706 16.1979 5.92702C17.2582 5.94195 17.995 6.68863 17.9999 7.74892C17.9999 8.2268 17.9999 8.70468 17.9999 9.18753C17.9999 11.8856 17.9999 14.5885 17.9999 17.2866C17.9999 17.9436 17.7461 18.4763 17.1885 18.8297C16.9695 18.9641 16.7057 19.0238 16.4618 19.1184Z" fill="white"/>
<path d="M10.5634 0.00497819C10.9118 0.0995581 11.2453 0.219027 11.5142 0.477878C11.8427 0.801441 12.0418 1.18474 12.0617 1.64768C12.0717 1.93142 12.0617 2.21516 12.0617 2.4541C11.6486 2.43419 11.2553 2.40432 10.862 2.39934C7.94998 2.39437 5.0429 2.39934 2.13083 2.39934C2.05118 2.39934 1.97154 2.39934 1.89687 2.39934C1.78238 1.40377 1.99643 0.592369 2.93725 0.149337C3.08161 0.0796462 3.2409 0.0497789 3.39521 0C5.7846 0.00497789 8.17399 0.00497819 10.5634 0.00497819Z" fill="white"/>
<path d="M6.03818 10.2008C4.28596 10.2008 2.52877 10.2008 0.776551 10.2008C0.224005 10.2008 0 9.97185 0 9.41433C0 7.69696 0 5.97959 0 4.26221C0 3.76442 0.248895 3.52051 0.746684 3.52051C4.27601 3.52051 7.80036 3.52051 11.3297 3.52051C11.8324 3.52051 12.0764 3.76442 12.0764 4.26221C12.0764 5.9995 12.0764 7.7318 12.0764 9.46909C12.0764 9.95692 11.8324 10.2008 11.3396 10.2008C9.5675 10.2008 7.80533 10.2008 6.03818 10.2008ZM4.57966 6.86565C4.57966 7.45802 4.57468 8.04541 4.57966 8.63778C4.58464 8.99121 4.81362 9.22019 5.16705 9.22019C5.37114 9.22019 5.58021 9.21024 5.77933 9.18535C6.82967 9.05094 7.64106 8.21964 7.75555 7.17428C7.88498 6.00945 7.28763 4.99396 6.24228 4.65547C5.91871 4.55093 5.5603 4.52604 5.21683 4.50613C4.78873 4.48124 4.57468 4.71022 4.57468 5.1433C4.57966 5.72074 4.57966 6.29319 4.57966 6.86565ZM2.09071 8.32915C2.17534 8.31422 2.23507 8.30426 2.29481 8.2943C3.13607 8.16488 3.73342 7.54762 3.86284 6.67649C3.98729 5.86509 3.55421 5.04872 2.82744 4.70027C2.44912 4.52106 2.05089 4.50115 1.6427 4.50613C1.17976 4.51111 0.965712 4.7152 0.965712 5.17814C0.965712 6.29817 0.965712 7.4182 0.965712 8.53822C0.965712 8.61289 0.965711 8.68756 0.980645 8.76223C1.0354 9.05592 1.27932 9.24508 1.56804 9.22517C1.86173 9.20028 2.0708 8.98623 2.08574 8.68756C2.09569 8.57307 2.09071 8.45858 2.09071 8.32915ZM9.60235 5.62118C9.92591 5.62118 10.2345 5.63113 10.5382 5.6162C10.8866 5.60127 11.1007 5.36731 11.0907 5.03876C11.0808 4.72516 10.8618 4.50613 10.5183 4.50613C10.0354 4.50115 9.54759 4.50115 9.05976 4.50613C8.70633 4.51111 8.48233 4.74009 8.47735 5.09352C8.47237 5.34739 8.47735 5.60127 8.47735 5.86012C8.47735 6.77605 8.47735 7.687 8.47735 8.60293C8.47735 8.89663 8.60677 9.09574 8.83576 9.18037C9.21407 9.31477 9.58244 9.06588 9.59239 8.66267C9.60235 8.35404 9.59239 8.04541 9.59239 7.73678C9.75667 7.72682 9.89107 7.7318 10.0255 7.70691C10.3241 7.65714 10.5033 7.42317 10.4884 7.1245C10.4735 6.8308 10.2545 6.62173 9.95578 6.6068C9.84129 6.60182 9.72182 6.6068 9.60235 6.6068C9.60235 6.27328 9.60235 5.96465 9.60235 5.62118Z" fill="white"/>
<path d="M9.93084 15.609C9.21403 14.8922 8.48228 14.1654 7.7356 13.4187C7.85507 13.4187 7.96956 13.4187 8.08405 13.4187C8.4773 13.4088 8.69135 13.1898 8.69633 12.8015C8.69633 12.3186 8.69633 11.8308 8.69633 11.333C9.51768 11.333 10.3291 11.333 11.1604 11.333C11.1654 11.3977 11.1703 11.4624 11.1703 11.5271C11.1703 11.9304 11.1703 12.3336 11.1703 12.7418C11.1703 13.2147 11.3794 13.4187 11.8573 13.4237C11.9469 13.4237 12.0365 13.4237 12.1211 13.4237C11.3844 14.1604 10.6477 14.8922 9.93084 15.609Z" fill="white"/>
<path d="M17.6865 5.17716C17.104 4.84364 16.4768 4.78889 15.8247 4.80382C15.1975 4.81377 14.5703 4.8088 13.9431 4.80382C13.4453 4.80382 13.1964 4.5599 13.1964 4.06211C13.1964 3.38512 13.1864 2.70813 13.1964 2.03113C13.2064 1.42881 13.1217 0.856352 12.7882 0.298828C12.8629 0.323718 12.9127 0.333674 12.9525 0.358563C13.2412 0.557679 13.5648 0.726927 13.8137 0.970843C14.8988 2.03113 15.9641 3.10636 17.0343 4.18158C17.3181 4.46034 17.5321 4.79386 17.6865 5.17716Z" fill="white"/>
<path d="M5.70972 5.67383C6.25231 5.7485 6.67543 6.28113 6.67543 6.86852C6.67045 7.46089 6.25728 7.97361 5.70972 8.05326C5.70972 7.26178 5.70972 6.47527 5.70972 5.67383Z" fill="white"/>
<path d="M2.10583 5.65137C2.52398 5.70115 2.79278 6.03467 2.76789 6.46276C2.74798 6.84606 2.46424 7.15469 2.10583 7.16962C2.10583 6.66686 2.10583 6.16409 2.10583 5.65137Z" fill="white"/>
</svg>
