<svg width="24" height="24" viewBox="0 0 24 24" fill="none" xmlns="http://www.w3.org/2000/svg">
<path fill-rule="evenodd" clip-rule="evenodd" d="M2.78846 3C2.35301 3 2 3.35301 2 3.78846C2 4.22392 2.35301 4.57692 2.78846 4.57692H4.10256V20.5728C4.10256 22.1004 5.85653 22.9625 7.06603 22.0295L8.46511 20.9502C8.5531 20.8823 8.67428 20.8771 8.76776 20.9372L10.6867 22.1708C11.639 22.783 12.861 22.783 13.8133 22.1708L15.7322 20.9372C15.8257 20.8771 15.9469 20.8823 16.0349 20.9502L17.434 22.0295C18.6435 22.9625 20.3974 22.1004 20.3974 20.5728V4.57692H21.7115C22.147 4.57692 22.5 4.22392 22.5 3.78846C22.5 3.35301 22.147 3 21.7115 3H2.78846ZM8.30769 10.0962C8.30769 9.6607 8.6607 9.30769 9.09615 9.30769H12.25C12.6855 9.30769 13.0385 9.6607 13.0385 10.0962C13.0385 10.5316 12.6855 10.8846 12.25 10.8846H9.09615C8.6607 10.8846 8.30769 10.5316 8.30769 10.0962ZM9.09615 13.5128C8.6607 13.5128 8.30769 13.8658 8.30769 14.3013C8.30769 14.7367 8.6607 15.0897 9.09615 15.0897H12.25C12.6855 15.0897 13.0385 14.7367 13.0385 14.3013C13.0385 13.8658 12.6855 13.5128 12.25 13.5128H9.09615ZM14.6154 10.0962C14.6154 9.6607 14.9684 9.30769 15.4038 9.30769H15.9295C16.3649 9.30769 16.7179 9.6607 16.7179 10.0962C16.7179 10.5316 16.3649 10.8846 15.9295 10.8846H15.4038C14.9684 10.8846 14.6154 10.5316 14.6154 10.0962ZM15.4038 13.5128C14.9684 13.5128 14.6154 13.8658 14.6154 14.3013C14.6154 14.7367 14.9684 15.0897 15.4038 15.0897H15.9295C16.3649 15.0897 16.7179 14.7367 16.7179 14.3013C16.7179 13.8658 16.3649 13.5128 15.9295 13.5128H15.4038Z" fill="white"/>
</svg>
