<svg width="60" height="56" viewBox="0 0 60 56" fill="none" xmlns="http://www.w3.org/2000/svg">
<path d="M52.2778 12.926L49.0674 16.1364C51.6402 17.6741 54.063 19.5644 56.2383 21.7471C56.6808 22.1672 57.2284 22.3847 57.7985 22.3847C58.346 22.3847 58.9236 22.1672 59.3587 21.7471C60.2138 20.8695 60.2138 19.4818 59.3587 18.6267C57.1834 16.444 54.8056 14.5537 52.2778 12.926Z" fill="#0C4A9F"/>
<path d="M45.8345 19.3691L42.6016 22.602C45.2869 23.9447 47.7922 25.7224 50.0125 27.9427C50.455 28.3853 51.0026 28.6028 51.5727 28.6028C52.1427 28.6028 52.6978 28.3853 53.1329 27.9427C53.988 27.0876 53.988 25.6999 53.1329 24.8448C50.9126 22.6245 48.4523 20.8018 45.8345 19.3691Z" fill="#0C4A9F"/>
<path d="M39.2785 25.925L35.8506 29.353C36.3982 29.5255 36.9532 29.728 37.4783 29.9455C39.8111 30.9132 41.9638 32.3233 43.7866 34.1686C44.2291 34.6111 44.7992 34.8287 45.3468 34.8287C45.9168 34.8287 46.4719 34.6111 46.907 34.1686C47.7621 33.3135 47.7621 31.9258 46.907 31.0707C44.6717 28.8279 42.0989 27.1177 39.2785 25.925Z" fill="#0C4A9F"/>
<path d="M32.153 33.051L27.6899 37.5141C31.1404 36.7415 34.9058 37.7091 37.5837 40.3944C38.0037 40.837 38.5738 41.032 39.1214 41.032C39.6914 41.032 40.2465 40.837 40.6816 40.3944C41.5367 39.5393 41.5367 38.1517 40.6816 37.2966C38.2888 34.8963 35.2809 33.4711 32.153 33.051Z" fill="#0C4A9F"/>
<path d="M30.0002 41.2871C27.7649 41.2871 25.9497 43.1023 25.9497 45.3376C25.9497 47.5729 27.7649 49.3881 30.0002 49.3881C32.2355 49.3881 34.0507 47.5729 34.0507 45.3376C34.0507 43.1023 32.2355 41.2871 30.0002 41.2871Z" fill="#0C4A9F"/>
<path d="M57.2809 0.646956C56.4183 -0.215652 55.0306 -0.215652 54.168 0.646956L45.3919 9.43055C40.5538 7.48031 35.3632 6.46768 30 6.46768C18.9136 6.46768 8.48731 10.8032 0.64133 18.6267C-0.213777 19.4818 -0.213777 20.8695 0.64133 21.7471C1.51894 22.6022 2.90661 22.6022 3.76172 21.7471C10.7751 14.7337 20.0838 10.8632 30 10.8632C34.148 10.8632 38.161 11.5608 41.964 12.8585L38.416 16.4064C27.5172 13.5186 15.3957 16.3239 6.8596 24.8525C6.0045 25.7076 6.0045 27.0952 6.8596 27.9504C7.71471 28.8055 9.12489 28.8055 9.97999 27.9504C16.7083 21.222 25.9945 18.6192 34.7331 20.0819L30.7051 24.1099C30.4725 24.1024 30.2325 24.0799 30 24.0799C23.6017 24.0799 17.5934 26.5627 13.0854 31.0707C12.2303 31.9258 12.2303 33.3135 13.0854 34.1686C13.9405 35.0237 15.3507 35.0237 16.2058 34.1686C18.8986 31.4758 22.2515 29.6831 25.897 28.9105L2.71909 52.0959C1.85648 52.9585 1.85648 54.3461 2.71909 55.2088C3.14664 55.6363 3.70921 55.8538 4.27178 55.8538C4.83435 55.8538 5.39692 55.6363 5.82448 55.2088L57.2734 3.75984C58.136 2.89724 58.136 1.50956 57.2809 0.646956Z" fill="#0C4A9F"/>
</svg>
