<svg width="38" height="47" viewBox="0 0 38 47" fill="none" xmlns="http://www.w3.org/2000/svg">
<path d="M18.9881 8.34802C23.4616 8.34802 27.0354 11.9219 27.0354 16.3954C27.0354 20.8323 23.4494 24.4184 19.0124 24.4184C14.5511 24.4184 10.9651 20.8202 10.9651 16.371C10.9772 11.9219 14.5511 8.34802 18.9881 8.34802ZM17.2984 17.4773C16.7514 16.7965 16.2773 16.1522 15.7424 15.5566C15.5479 15.3256 15.2562 15.1311 14.9766 15.046C14.4904 14.9002 14.0163 15.1311 13.7731 15.5566C13.5057 16.0307 13.5422 16.4926 13.8704 16.9181C14.6119 17.8662 15.3534 18.8023 16.1071 19.7383C16.7757 20.5771 17.4443 20.6257 18.2101 19.872C19.9849 18.0972 21.7597 16.3346 23.5223 14.5598C23.6439 14.4382 23.7533 14.3167 23.8506 14.1829C24.1058 13.794 24.118 13.3806 23.8749 12.9795C23.6439 12.5783 23.2671 12.3231 22.8173 12.4203C22.4891 12.4933 22.1365 12.6756 21.8934 12.9187C20.3617 14.3896 18.8544 15.9091 17.2984 17.4773Z" fill="#0C4A9F"/>
<path d="M19.766 31.2022C20.1307 31.8221 20.4346 32.3448 20.7263 32.8554C21.1397 33.5605 21.5408 34.2777 21.9541 34.9827C22.3066 35.6027 22.5619 35.6878 23.2183 35.4325C26.853 34.0224 30.4877 32.6123 34.1102 31.2022C34.2439 31.1535 34.3898 31.1049 34.5721 31.032C34.5843 31.2022 34.6086 31.3237 34.6086 31.4574C34.6086 34.3263 34.6086 37.1951 34.6086 40.064C34.6086 40.3192 34.5478 40.4651 34.2804 40.5624C29.5152 42.4101 24.75 44.2578 19.9848 46.1055C19.9119 46.1299 19.8511 46.1542 19.7417 46.1906C19.766 41.2309 19.766 36.2834 19.766 31.2022Z" fill="#0C4A9F"/>
<path d="M3.39175 31.0057C4.63167 31.4798 5.78649 31.9296 6.94132 32.3794C9.53057 33.3883 12.1077 34.3973 14.6969 35.4062C15.4627 35.7101 15.6816 35.6251 16.0949 34.9078C16.7148 33.8259 17.3348 32.7562 17.9669 31.6743C18.0398 31.5528 18.1249 31.4312 18.2465 31.2245C18.2465 36.2693 18.2465 41.2047 18.2465 46.213C17.5779 45.9577 16.9093 45.7025 16.2529 45.4472C12.1077 43.8426 7.97459 42.2258 3.82937 40.6212C3.50115 40.4996 3.36743 40.3538 3.36743 39.9769C3.39174 37.1689 3.37959 34.3608 3.37959 31.5528C3.39174 31.4069 3.39175 31.261 3.39175 31.0057Z" fill="#0C4A9F"/>
<path d="M20.0576 28.7936C25.0538 26.8486 30.0256 24.9158 35.0339 22.9708C36.0186 24.6848 37.0032 26.3745 38 28.1007C37.8784 28.1615 37.7812 28.2223 37.6839 28.2587C32.9431 30.1064 28.19 31.9542 23.437 33.8019C23.2547 33.8748 23.0723 34.0207 22.9021 33.729C21.9783 32.0879 21.0301 30.4711 20.0576 28.7936Z" fill="#0C4A9F"/>
<path d="M17.9545 28.7936C16.9456 30.5319 15.9731 32.2216 14.9763 33.9478C9.98015 32.0028 5.00831 30.07 0 28.125C0.9968 26.3988 1.96929 24.7091 2.97824 22.9708C7.95008 24.9036 12.9219 26.8365 17.9545 28.7936Z" fill="#0C4A9F"/>
<path d="M4.66748 22.0723C6.56383 21.3307 8.35078 20.6378 10.1499 19.9449C11.9368 23.7012 14.8421 25.8528 19.0238 25.8528C23.1934 25.8528 26.0744 23.689 27.8613 19.9449C29.6482 20.6378 31.4352 21.3307 33.3194 22.0601C33.1492 22.1452 33.0519 22.1938 32.9547 22.2303C28.4448 23.9808 23.9349 25.7434 19.425 27.4817C19.2183 27.5668 18.963 27.5425 18.7321 27.5303C18.5984 27.5182 18.4768 27.4453 18.3431 27.3966C13.8332 25.634 9.31111 23.8714 4.66748 22.0723Z" fill="#0C4A9F"/>
<path d="M31.9597 15.8367C32.5067 15.8367 33.0537 15.8246 33.6008 15.8367C34.0992 15.8489 34.4152 16.1285 34.4274 16.554C34.4274 16.9794 34.1113 17.2833 33.6129 17.2833C32.531 17.2955 31.4613 17.2955 30.3794 17.2833C29.8688 17.2833 29.5649 16.9916 29.5649 16.554C29.5649 16.1163 29.8688 15.8367 30.3672 15.8246C30.89 15.8367 31.4248 15.8367 31.9597 15.8367Z" fill="#0C4A9F"/>
<path d="M19.7303 3.19389C19.7303 3.74092 19.7425 4.28794 19.7303 4.83496C19.7182 5.33336 19.4386 5.63727 19.001 5.63727C18.5634 5.63727 18.2838 5.33336 18.2838 4.82281C18.2716 3.74091 18.2716 2.67118 18.2838 1.58929C18.2838 1.07873 18.5755 0.786987 19.0131 0.786987C19.4508 0.786987 19.7303 1.09089 19.7303 1.60144C19.7425 2.12415 19.7303 2.65902 19.7303 3.19389Z" fill="#0C4A9F"/>
<path d="M32.5058 9.27173C32.4329 9.35682 32.3113 9.6121 32.1168 9.73366C31.1565 10.3172 30.184 10.8763 29.2115 11.4234C28.8347 11.6422 28.4214 11.5206 28.2147 11.1802C27.9959 10.8156 28.0931 10.4022 28.4943 10.1713C29.4546 9.59994 30.4271 9.0286 31.4118 8.48158C31.9466 8.18983 32.518 8.54236 32.5058 9.27173Z" fill="#0C4A9F"/>
<path d="M5.62761 16.9184C5.11705 16.9184 4.59434 16.9305 4.08378 16.9184C3.53676 16.9062 3.2207 16.6388 3.2207 16.189C3.2207 15.7271 3.51245 15.4596 4.07163 15.4596C5.12921 15.4596 6.19894 15.4475 7.25652 15.4596C7.76708 15.4596 8.07098 15.7392 8.07098 16.1768C8.07098 16.6145 7.77924 16.9062 7.26868 16.9184C6.72166 16.9305 6.17463 16.9184 5.62761 16.9184Z" fill="#0C4A9F"/>
<path d="M11.6938 2.68311C11.8032 2.7682 12.0585 2.88976 12.1922 3.09641C12.7757 4.04459 13.3228 5.00492 13.8576 5.96525C14.0886 6.3664 13.967 6.77971 13.6024 6.98636C13.2377 7.19302 12.8365 7.08361 12.5934 6.6703C12.0342 5.72213 11.475 4.7618 10.9402 3.80146C10.6363 3.25444 10.9645 2.68311 11.6938 2.68311Z" fill="#0C4A9F"/>
<path d="M5.88362 7.9845C6.15106 8.08175 6.30909 8.10606 6.43065 8.179C7.37882 8.71386 8.327 9.26089 9.26302 9.80791C9.70064 10.0632 9.81004 10.4765 9.59123 10.8412C9.37242 11.2059 8.95911 11.3031 8.52149 11.0478C7.58548 10.513 6.66161 9.9781 5.72559 9.43108C5.38522 9.23658 5.19073 8.92052 5.3366 8.55583C5.44601 8.33703 5.71344 8.16684 5.88362 7.9845Z" fill="#0C4A9F"/>
<path d="M24.8465 7.26686C24.1779 7.25471 23.8133 6.70768 24.0807 6.22144C24.6399 5.20033 25.2234 4.19137 25.8312 3.19457C26.0378 2.8542 26.4633 2.76911 26.7915 2.96361C27.1197 3.15811 27.2656 3.5471 27.0711 3.91178C26.5119 4.93289 25.9284 5.94185 25.3206 6.93865C25.199 7.10884 24.9316 7.20608 24.8465 7.26686Z" fill="#0C4A9F"/>
</svg>
