<svg width="122" height="135" viewBox="0 0 122 135" fill="none" xmlns="http://www.w3.org/2000/svg">
<path d="M64.7858 32.203C64.7858 35.0505 64.7858 37.7884 64.7858 40.5263C64.7858 41.1104 64.7858 41.731 64.9318 42.2786C65.2604 43.5928 66.6111 44.396 67.9983 44.2499C69.4585 44.1039 70.5537 42.9722 70.5902 41.366C70.6632 38.8106 70.6267 36.2552 70.6267 33.6998C70.6267 33.2252 70.6267 32.7141 70.6267 32.0935C72.598 32.0935 74.4598 32.0935 76.3216 32.0935C79.9357 32.0935 83.5498 32.0935 87.1273 32.0935C89.7557 32.0935 91.1065 33.2982 91.362 35.8901C91.9461 42.2421 92.5302 48.5941 93.0778 54.9826C93.3698 58.3412 93.6984 61.6997 94.0269 65.2408C79.9357 64.3646 68.2539 69.0739 59.7845 80.3907C51.3517 91.6709 50.1835 104.192 55.0023 117.517C54.4182 117.517 53.9436 117.517 53.469 117.517C38.5382 117.517 23.6073 117.408 8.67645 117.59C4.00371 117.627 0.134104 114.158 0.68169 109.084C1.59433 100.651 2.25144 92.182 3.05456 83.7492C3.82119 75.2433 4.62431 66.774 5.39093 58.2682C6.08454 50.894 6.70514 43.5563 7.43526 36.1822C7.7273 33.1522 8.9685 32.13 11.962 32.13C17.2918 32.13 22.6216 32.13 28.1705 32.13C28.1705 33.1522 28.1705 34.0648 28.1705 35.014C28.1705 37.0583 28.134 39.1391 28.1705 41.1834C28.207 43.0817 29.4117 44.2864 31.091 44.2864C32.7702 44.2864 33.9749 43.0452 34.0114 41.1469C34.048 38.19 34.0114 35.233 34.0114 32.203C44.3791 32.203 54.4912 32.203 64.7858 32.203Z" fill="#0C4A9F"/>
<path d="M121.37 102.989C121.406 120.256 107.461 134.274 90.1937 134.274C72.89 134.311 58.8718 120.365 58.8353 103.135C58.7988 85.7943 72.744 71.7761 90.0842 71.7761C107.424 71.7761 121.333 85.6483 121.37 102.989ZM86.3606 106.566C84.0608 104.449 81.8704 102.404 79.6071 100.433C79.023 99.9221 78.2563 99.484 77.4897 99.3015C76.1025 98.9729 74.7518 99.776 74.0947 101.054C73.4376 102.404 73.7296 103.901 74.9343 105.033C77.8548 107.734 80.7752 110.399 83.6957 113.101C85.6305 114.853 87.1638 114.853 89.0621 113.028C92.4936 109.742 95.9251 106.457 99.3567 103.208C101.365 101.273 103.409 99.3745 105.38 97.4032C106.585 96.1985 106.731 94.7382 105.964 93.3875C105.234 92.1463 103.883 91.4892 102.46 91.8908C101.73 92.1098 100.999 92.6209 100.415 93.1685C95.7791 97.5127 91.1429 102.003 86.3606 106.566Z" fill="#0C4A9F"/>
<path d="M34.152 31.5456C32.0712 31.5456 30.2459 31.5456 28.2016 31.5456C28.5301 25.5221 27.3984 19.5352 29.6253 13.7308C33.0568 4.71383 42.4023 -1.01757 51.7478 0.15061C61.6408 1.39181 69.307 8.76597 70.3657 18.586C70.8038 22.8207 70.4387 27.1284 70.4387 31.5091C68.6864 31.5091 66.8611 31.5091 64.8533 31.5091C64.8168 31.0345 64.7803 30.5599 64.7803 30.0853C64.7438 26.7268 64.8533 23.3318 64.6343 19.9732C64.1232 12.015 57.1871 5.736 49.2289 5.88202C41.0881 6.02804 34.4075 12.5261 34.152 20.6303C34.079 24.2079 34.152 27.7855 34.152 31.5456Z" fill="#0C4A9F"/>
</svg>
