<svg width="120" height="144" viewBox="0 0 120 144" fill="none" xmlns="http://www.w3.org/2000/svg">
<path d="M59.9614 23.877C74.0881 23.877 85.374 35.1629 85.374 49.2896C85.374 63.3011 74.0497 74.6255 60.0382 74.6255C45.9499 74.6255 34.6255 63.2627 34.6255 49.2128C34.6639 35.1629 45.9499 23.877 59.9614 23.877ZM54.6255 52.7061C52.898 50.5564 51.4009 48.5219 49.7119 46.6409C49.0977 45.9115 48.1764 45.2973 47.2934 45.0286C45.7579 44.5679 44.2608 45.2973 43.4931 46.6409C42.6485 48.138 42.7637 49.5967 43.8002 50.9403C46.1418 53.9345 48.4835 56.8904 50.8635 59.8462C52.9748 62.495 55.0861 62.6486 57.5046 60.2685C63.1092 54.6639 68.7138 49.0977 74.28 43.4931C74.6639 43.1092 75.0094 42.7253 75.3165 42.3031C76.1226 41.0746 76.161 39.7695 75.3932 38.5027C74.6639 37.2359 73.4739 36.4297 72.0535 36.7368C71.017 36.9672 69.9038 37.543 69.136 38.3107C64.2992 42.9557 59.5391 47.7541 54.6255 52.7061Z" fill="#0C4A9F"/>
<path d="M62.4183 96.0462C63.57 98.004 64.5297 99.6547 65.451 101.267C66.7561 103.493 68.0229 105.758 69.3281 107.985C70.4414 109.943 71.2475 110.211 73.3204 109.405C84.7984 104.952 96.2763 100.499 107.716 96.0462C108.138 95.8927 108.599 95.7391 109.175 95.5088C109.213 96.0462 109.29 96.4301 109.29 96.8524C109.29 105.912 109.29 114.971 109.29 124.031C109.29 124.837 109.098 125.298 108.253 125.605C93.2053 131.44 78.1573 137.275 63.1093 143.11C62.879 143.186 62.687 143.263 62.3416 143.378C62.4183 127.716 62.4183 112.092 62.4183 96.0462Z" fill="#0C4A9F"/>
<path d="M10.7101 95.4316C14.6256 96.9288 18.2725 98.3491 21.9193 99.7694C30.0959 102.956 38.2341 106.142 46.4107 109.328C48.8291 110.288 49.5201 110.019 50.8252 107.754C52.783 104.338 54.7408 100.959 56.737 97.543C56.9673 97.1591 57.236 96.7752 57.6199 96.1226C57.6199 112.054 57.6199 127.639 57.6199 143.455C55.5085 142.649 53.3972 141.842 51.3243 141.036C38.2341 135.969 25.1823 130.863 12.092 125.796C11.0556 125.412 10.6333 124.952 10.6333 123.762C10.7101 114.894 10.6717 106.027 10.6717 97.1591C10.7101 96.6984 10.7101 96.2378 10.7101 95.4316Z" fill="#0C4A9F"/>
<path d="M63.3398 88.4453C79.1172 82.3033 94.8178 76.1997 110.634 70.0576C113.743 75.4703 116.852 80.8062 120 86.2572C119.616 86.4492 119.309 86.6411 119.002 86.7563C104.031 92.5912 89.0212 98.4261 74.0116 104.261C73.4358 104.491 72.86 104.952 72.3226 104.031C69.4051 98.8484 66.4109 93.7428 63.3398 88.4453Z" fill="#0C4A9F"/>
<path d="M56.6987 88.4453C53.5125 93.9348 50.4415 99.2707 47.2937 104.722C31.5163 98.5797 15.8157 92.476 0 86.334C3.14779 80.883 6.21881 75.5471 9.40499 70.0576C25.1056 76.1613 40.8061 82.2649 56.6987 88.4453Z" fill="#0C4A9F"/>
<path d="M14.741 67.2169C20.7295 64.8752 26.3724 62.6871 32.0538 60.499C37.6968 72.3608 46.8715 79.1554 60.0769 79.1554C73.2439 79.1554 82.3417 72.3224 87.9847 60.499C93.6277 62.6871 99.2707 64.8752 105.221 67.1785C104.683 67.4472 104.376 67.6007 104.069 67.7159C89.8273 73.2437 75.5855 78.81 61.3437 84.2994C60.6911 84.5681 59.8849 84.4913 59.1556 84.4529C58.7333 84.4146 58.3494 84.1842 57.9272 84.0307C43.6853 78.4645 29.4051 72.8983 14.741 67.2169Z" fill="#0C4A9F"/>
<path d="M100.921 47.5237C102.649 47.5237 104.376 47.4854 106.104 47.5237C107.677 47.5621 108.676 48.445 108.714 49.7886C108.714 51.1322 107.716 52.0919 106.142 52.0919C102.725 52.1303 99.3474 52.1303 95.9308 52.0919C94.3186 52.0919 93.3589 51.1706 93.3589 49.7886C93.3589 48.4067 94.3186 47.5237 95.8925 47.4854C97.5431 47.5237 99.2322 47.5237 100.921 47.5237Z" fill="#0C4A9F"/>
<path d="M62.3032 7.60076C62.3032 9.32821 62.3416 11.0557 62.3032 12.7831C62.2648 14.357 61.3819 15.3167 60 15.3167C58.618 15.3167 57.7351 14.357 57.7351 12.7447C57.6967 9.32821 57.6967 5.9501 57.7351 2.53359C57.7351 0.921308 58.6564 0 60.0384 0C61.4203 0 62.3032 0.959686 62.3032 2.57197C62.3416 4.22264 62.3032 5.9117 62.3032 7.60076Z" fill="#0C4A9F"/>
<path d="M102.649 26.7943C102.418 27.063 102.035 27.8691 101.42 28.253C98.3878 30.0956 95.3168 31.8614 92.2457 33.5889C91.0557 34.2799 89.7505 33.896 89.0979 32.8211C88.407 31.6695 88.7141 30.3643 89.9808 29.6349C93.0135 27.8307 96.0845 26.0265 99.1939 24.299C100.883 23.3777 102.687 24.491 102.649 26.7943Z" fill="#0C4A9F"/>
<path d="M17.7736 50.941C16.1613 50.941 14.5107 50.9794 12.8984 50.941C11.1709 50.9026 10.1729 50.0581 10.1729 48.6377C10.1729 47.179 11.0942 46.3344 12.86 46.3344C16.1997 46.3344 19.5778 46.2961 22.9176 46.3344C24.5299 46.3344 25.4895 47.2174 25.4895 48.5993C25.4895 49.9813 24.5682 50.9026 22.956 50.941C21.2285 50.9794 19.5011 50.941 17.7736 50.941Z" fill="#0C4A9F"/>
<path d="M36.9291 5.98828C37.2746 6.257 38.0807 6.64087 38.503 7.29346C40.3456 10.2877 42.073 13.3203 43.7621 16.353C44.4915 17.6198 44.1076 18.9249 42.956 19.5775C41.8043 20.2301 40.5375 19.8846 39.7698 18.5794C38.0039 15.5852 36.2381 12.5526 34.549 9.51994C33.5894 7.7925 34.6258 5.98828 36.9291 5.98828Z" fill="#0C4A9F"/>
<path d="M18.5795 22.7256C19.424 23.0327 19.923 23.1095 20.3069 23.3398C23.3011 25.0289 26.2954 26.7563 29.2512 28.4837C30.6332 29.2899 30.9787 30.5951 30.2877 31.7467C29.5967 32.8983 28.2915 33.2054 26.9096 32.3993C23.9537 30.7102 21.0363 29.0212 18.0804 27.2937C17.0056 26.6795 16.3914 25.6814 16.852 24.5298C17.1975 23.8388 18.042 23.3014 18.5795 22.7256Z" fill="#0C4A9F"/>
<path d="M78.4645 20.4609C76.3531 20.4225 75.2015 18.695 76.046 17.1595C77.8119 13.9349 79.6545 10.7488 81.5739 7.60098C82.2265 6.52612 83.57 6.25741 84.6065 6.87161C85.643 7.48582 86.1036 8.71422 85.4894 9.86585C83.7236 13.0904 81.881 16.2766 79.9616 19.4244C79.5777 19.9618 78.7332 20.2689 78.4645 20.4609Z" fill="#0C4A9F"/>
</svg>
