<svg width="24" height="24" viewBox="0 0 24 24" fill="none" xmlns="http://www.w3.org/2000/svg">
<path d="M6.96563 20.7844L2.46563 16.2844C2.32701 16.141 2.24952 15.9494 2.24952 15.75C2.24952 15.5506 2.32701 15.359 2.46563 15.2156L6.96563 10.7156C7.07406 10.6139 7.20909 10.5449 7.35509 10.5167C7.50109 10.4885 7.65209 10.5022 7.79063 10.5562C7.92713 10.6136 8.04359 10.7101 8.12534 10.8336C8.20709 10.957 8.25046 11.1019 8.25 11.25L8.25 15L15.75 15C16.9435 15 18.0881 14.5259 18.932 13.682C19.7759 12.8381 20.25 11.6935 20.25 10.5C20.25 9.30653 19.7759 8.16193 18.932 7.31802C18.0881 6.47411 16.9435 6 15.75 6L7.5 6C7.30109 6 7.11032 5.92098 6.96967 5.78033C6.82902 5.63968 6.75 5.44891 6.75 5.25C6.75 5.05109 6.82902 4.86032 6.96967 4.71967C7.11032 4.57902 7.30109 4.5 7.5 4.5L15.75 4.5C17.3413 4.5 18.8674 5.13214 19.9926 6.25736C21.1179 7.38258 21.75 8.9087 21.75 10.5C21.75 12.0913 21.1179 13.6174 19.9926 14.7426C18.8674 15.8679 17.3413 16.5 15.75 16.5L8.25 16.5L8.25 20.25C8.25046 20.3981 8.20709 20.543 8.12534 20.6664C8.04359 20.7899 7.92713 20.8864 7.79062 20.9437C7.65209 20.9978 7.50109 21.0115 7.35509 20.9833C7.20909 20.9551 7.07406 20.8861 6.96563 20.7844Z" fill="#0C4A9F"/>
</svg>
