<svg width="24" height="25" viewBox="0 0 24 25" fill="none" xmlns="http://www.w3.org/2000/svg">
<path d="M2.38812 0C6.46418 0 10.5465 0 14.6288 0C14.6476 0.0125033 14.6663 0.0312585 14.6851 0.0375101C15.8416 0.193801 17.0357 1.24407 17.0107 2.91951C16.9919 4.38864 17.0044 5.85777 17.0044 7.32691C17.0044 7.41443 17.0044 7.4957 17.0044 7.58947C15.9729 7.93956 14.9601 8.2834 13.9349 8.63349C13.6973 8.14587 13.3035 8.00208 12.7908 8.00208C9.92133 8.01458 7.05808 8.00833 4.18859 8.00833C4.09481 8.00833 4.00104 8.00833 3.90727 8.01458C3.29461 8.05835 2.8695 8.66475 3.03204 9.25241C3.16332 9.73378 3.53217 9.99635 4.08856 9.99635C6.1516 9.99635 8.21463 9.99635 10.2777 9.99635C10.3527 9.99635 10.434 9.99635 10.5778 9.99635C9.90257 10.5965 9.57749 11.2967 9.50872 12.1031C9.33993 12.0656 9.18989 12.0094 9.03985 12.0094C7.34566 12.0031 5.65147 11.9969 3.95103 12.0094C3.40714 12.0156 2.98828 12.4907 3.00078 13.0284C3.01328 13.591 3.45715 14.0036 4.07606 14.0036C5.45767 14.0099 6.83928 14.0099 8.22714 14.0036C8.65225 14.0036 9.07736 13.9724 9.50872 13.9536C9.50872 14.6476 9.52122 15.3915 9.50872 16.1354C9.48372 17.8234 9.92758 19.3738 10.7903 20.8117C10.8216 20.8679 10.8466 20.9242 10.8841 20.9992C8.09585 20.9992 5.33264 21.018 2.57567 20.9867C1.76296 20.9805 1.10029 20.5803 0.587652 19.9427C0.26882 19.5488 0.118781 19.0862 0 18.6048C0 13.1972 0 7.78953 0 2.38187C0.0187549 2.33186 0.037509 2.28184 0.0500122 2.23183C0.206303 1.48789 0.575149 0.868976 1.21907 0.475124C1.57541 0.262569 2.00052 0.156291 2.38812 0ZM5.98906 6.00156C6.62672 6.00156 7.27064 6.00156 7.90831 6.00156C8.54597 6.00156 9.00234 5.5827 8.99609 5.0013C8.99609 4.42615 8.54597 4.00104 7.92706 4.00104C6.63923 3.99479 5.35139 3.99479 4.06356 4.00104C3.44465 4.00104 2.99453 4.4324 2.99453 5.00755C2.99453 5.5827 3.44465 6.00156 4.06356 6.00781C4.71373 6.00156 5.35139 6.00156 5.98906 6.00156Z" fill="white"/>
<path d="M17.5357 24.0062C16.0603 23.3436 14.7412 22.4621 13.6222 21.2868C12.5219 20.124 11.7717 18.7799 11.5591 17.1732C11.5216 16.8669 11.5029 16.548 11.4966 16.2417C11.4904 14.9789 11.4904 13.7098 11.4966 12.447C11.4966 11.8156 11.7217 11.503 12.3218 11.2967C13.991 10.7278 15.6602 10.1651 17.3231 9.58998C17.6107 9.48995 17.8858 9.48995 18.1671 9.58373C19.8613 10.1651 21.5617 10.7403 23.2622 11.3154C23.6498 11.4467 23.8748 11.7218 23.9999 12.0969C23.9999 13.691 23.9999 15.2852 23.9999 16.8794C23.9874 16.9169 23.9686 16.9481 23.9624 16.9857C23.8186 18.4298 23.2247 19.6801 22.3119 20.7866C21.1241 22.2183 19.6488 23.256 17.9546 24.0062C17.817 24.0062 17.6795 24.0062 17.5357 24.0062ZM17.3919 16.9919C16.9856 16.5793 16.6105 16.1917 16.2291 15.8166C15.8103 15.4102 15.1913 15.4102 14.8037 15.8041C14.4099 16.2042 14.4099 16.8106 14.8225 17.2295C15.4727 17.8921 16.1291 18.5486 16.7918 19.1987C17.2481 19.6488 17.9233 19.6113 18.3109 19.0987C19.3174 17.7734 20.3114 16.4418 21.3054 15.1102C21.4617 14.9039 21.5367 14.6663 21.5055 14.41C21.4555 13.9786 21.1804 13.6473 20.7615 13.541C20.3302 13.4285 19.9676 13.566 19.705 13.9161C19.1236 14.6788 18.5485 15.454 17.9733 16.2167C17.7858 16.4668 17.5982 16.7106 17.3919 16.9919Z" fill="white"/>
</svg>
