<svg width="24" height="24" viewBox="0 0 24 24" fill="none" xmlns="http://www.w3.org/2000/svg">
<path d="M23.25 11.2406V11.2219C23.2515 11.1996 23.2483 11.1772 23.2406 11.1562V11.1281C23.2406 11.1094 23.2312 11.0906 23.2312 11.0719V11.0531L23.2125 10.9781H23.2031L21.8906 7.71563C21.7861 7.4301 21.5956 7.18396 21.3455 7.01105C21.0954 6.83814 20.7978 6.74695 20.4937 6.75H17.25V6C17.25 5.80109 17.171 5.61032 17.0303 5.46967C16.8897 5.32902 16.6989 5.25 16.5 5.25H2.25C1.85218 5.25 1.47064 5.40804 1.18934 5.68934C0.908035 5.97064 0.75 6.35218 0.75 6.75V17.25C0.75 17.6478 0.908035 18.0294 1.18934 18.3107C1.47064 18.592 1.85218 18.75 2.25 18.75H3.46875C3.63398 19.3953 4.00928 19.9673 4.53548 20.3757C5.06169 20.7842 5.70887 21.0059 6.375 21.0059C7.04113 21.0059 7.68831 20.7842 8.21452 20.3757C8.74072 19.9673 9.11602 19.3953 9.28125 18.75H14.7187C14.884 19.3953 15.2593 19.9673 15.7855 20.3757C16.3117 20.7842 16.9589 21.0059 17.625 21.0059C18.2911 21.0059 18.9383 20.7842 19.4645 20.3757C19.9907 19.9673 20.366 19.3953 20.5312 18.75H21.75C22.1478 18.75 22.5294 18.592 22.8107 18.3107C23.092 18.0294 23.25 17.6478 23.25 17.25V11.25V11.2406ZM17.25 8.25H20.4937L21.3937 10.5H17.25V8.25ZM2.25 6.75H15.75V12.75H2.25V6.75ZM6.375 19.5C6.07833 19.5 5.78832 19.412 5.54164 19.2472C5.29497 19.0824 5.10271 18.8481 4.98918 18.574C4.87565 18.2999 4.84594 17.9983 4.90382 17.7074C4.9617 17.4164 5.10456 17.1491 5.31434 16.9393C5.52412 16.7296 5.79139 16.5867 6.08236 16.5288C6.37334 16.4709 6.67494 16.5006 6.94902 16.6142C7.22311 16.7277 7.45738 16.92 7.6222 17.1666C7.78703 17.4133 7.875 17.7033 7.875 18C7.875 18.3978 7.71696 18.7794 7.43566 19.0607C7.15436 19.342 6.77282 19.5 6.375 19.5ZM17.625 19.5C17.3283 19.5 17.0383 19.412 16.7916 19.2472C16.545 19.0824 16.3527 18.8481 16.2392 18.574C16.1256 18.2999 16.0959 17.9983 16.1538 17.7074C16.2117 17.4164 16.3546 17.1491 16.5643 16.9393C16.7741 16.7296 17.0414 16.5867 17.3324 16.5288C17.6233 16.4709 17.9249 16.5006 18.199 16.6142C18.4731 16.7277 18.7074 16.92 18.8722 17.1666C19.037 17.4133 19.125 17.7033 19.125 18C19.125 18.3978 18.967 18.7794 18.6857 19.0607C18.4044 19.342 18.0228 19.5 17.625 19.5Z" fill="#0C4A9F"/>
</svg>
