<svg width="24" height="24" viewBox="0 0 24 24" fill="none" xmlns="http://www.w3.org/2000/svg">
<path d="M6.00003 13.1255C6.00129 13.2243 5.98275 13.3224 5.94551 13.414C5.90826 13.5055 5.85306 13.5887 5.78317 13.6586C5.71327 13.7285 5.63009 13.7837 5.53853 13.8209C5.44696 13.8582 5.34887 13.8767 5.25003 13.8755H1.12503C0.985698 13.8743 0.849293 13.8354 0.7304 13.7627C0.611506 13.69 0.514596 13.5864 0.45003 13.463C0.38999 13.3372 0.365253 13.1975 0.378463 13.0588C0.391674 12.9201 0.442335 12.7876 0.52503 12.6755C1.18877 11.7845 2.07445 11.0831 3.09378 10.6411C2.65577 10.2401 2.31924 9.74091 2.11189 9.18449C1.90453 8.62806 1.83228 8.03035 1.90108 7.44054C1.96987 6.85073 2.17775 6.28569 2.5076 5.79193C2.83746 5.29816 3.27985 4.88978 3.79838 4.60041C4.3169 4.31104 4.89674 4.14894 5.49015 4.12746C6.08357 4.10597 6.67361 4.22572 7.2117 4.47684C7.7498 4.72796 8.22056 5.10328 8.58526 5.5719C8.94995 6.04052 9.19814 6.58905 9.30941 7.17234C9.33714 7.32426 9.3179 7.48102 9.25425 7.62172C9.1906 7.76242 9.08557 7.88037 8.95316 7.95984C7.74062 8.67886 6.81842 9.80009 6.3469 11.1286C6.11447 11.7686 5.99703 12.4446 6.00003 13.1255ZM23.475 12.6755C22.8113 11.7845 21.9256 11.0831 20.9063 10.6411C21.3443 10.2401 21.6808 9.74091 21.8882 9.18449C22.0955 8.62806 22.1678 8.03035 22.099 7.44054C22.0302 6.85073 21.8223 6.28569 21.4925 5.79193C21.1626 5.29816 20.7202 4.88978 20.2017 4.60041C19.6832 4.31104 19.1033 4.14894 18.5099 4.12746C17.9165 4.10597 17.3265 4.22572 16.7884 4.47684C16.2503 4.72796 15.7795 5.10328 15.4148 5.5719C15.0501 6.04052 14.8019 6.58905 14.6907 7.17234C14.6629 7.32426 14.6822 7.48102 14.7458 7.62172C14.8095 7.76242 14.9145 7.88037 15.0469 7.95984C16.261 8.67701 17.1838 9.7989 17.6532 11.1286C17.8856 11.7686 18.003 12.4446 18 13.1255C17.9988 13.2243 18.0173 13.3224 18.0546 13.414C18.0918 13.5055 18.147 13.5887 18.2169 13.6586C18.2868 13.7285 18.37 13.7837 18.4615 13.8209C18.5531 13.8582 18.6512 13.8767 18.75 13.8755H22.875C23.0143 13.8755 23.1508 13.8367 23.2693 13.7635C23.3878 13.6902 23.4836 13.5855 23.5459 13.4609C23.6081 13.3363 23.6345 13.1968 23.622 13.0581C23.6095 12.9194 23.5586 12.7869 23.475 12.6755ZM14.7375 16.6973C15.484 16.1252 16.0324 15.3336 16.3057 14.4338C16.5791 13.5339 16.5637 12.5711 16.2616 11.6804C15.9595 10.7898 15.386 10.0162 14.6217 9.46832C13.8573 8.92042 12.9405 8.62577 12 8.62577C11.0596 8.62577 10.1428 8.92042 9.37839 9.46832C8.61402 10.0162 8.04051 10.7898 7.73845 11.6804C7.4364 12.5711 7.42096 13.5339 7.69433 14.4338C7.96769 15.3336 8.51611 16.1252 9.26253 16.6973C7.80428 17.3448 6.62204 18.4871 5.92503 19.9223C5.86957 20.0364 5.84473 20.1629 5.85295 20.2895C5.86117 20.416 5.90216 20.5383 5.97191 20.6442C6.03682 20.7529 6.12882 20.8428 6.23893 20.9053C6.34903 20.9677 6.47345 21.0005 6.60003 21.0005H17.4C17.5266 21.0005 17.651 20.9677 17.7611 20.9053C17.8712 20.8428 17.9632 20.7529 18.0282 20.6442C18.0979 20.5383 18.1389 20.416 18.1471 20.2895C18.1553 20.1629 18.1305 20.0364 18.075 19.9223C17.378 18.4871 16.1958 17.3448 14.7375 16.6973Z" fill="#0C4A9F"/>
</svg>
