<svg width="24" height="24" viewBox="0 0 24 24" fill="none" xmlns="http://www.w3.org/2000/svg">
<path d="M12 12.7499C13.6569 12.7499 15 11.4068 15 9.74991C15 8.09305 13.6569 6.74991 12 6.74991C10.3431 6.74991 9 8.09305 9 9.74991C9 11.4068 10.3431 12.7499 12 12.7499Z" fill="#0C4A9F"/>
<path d="M21 18.7499H12.75V17.2124C14.6645 17.02 16.4318 16.0991 17.6864 14.6403C18.941 13.1815 19.5869 11.2962 19.4906 9.37453C19.3943 7.45282 18.563 5.64164 17.1688 4.31557C15.7746 2.98951 13.9241 2.25 12 2.25C10.0759 2.25 8.22535 2.98951 6.83115 4.31557C5.43695 5.64164 4.60573 7.45282 4.5094 9.37453C4.41308 11.2962 5.05901 13.1815 6.31362 14.6403C7.56822 16.0991 9.33552 17.02 11.25 17.2124V18.7499H3C2.80109 18.7499 2.61032 18.8289 2.46967 18.9696C2.32902 19.1102 2.25 19.301 2.25 19.4999C2.25 19.6988 2.32902 19.8896 2.46967 20.0302C2.61032 20.1709 2.80109 20.2499 3 20.2499H21C21.1989 20.2499 21.3897 20.1709 21.5303 20.0302C21.671 19.8896 21.75 19.6988 21.75 19.4999C21.75 19.301 21.671 19.1102 21.5303 18.9696C21.3897 18.8289 21.1989 18.7499 21 18.7499ZM7.5 9.74991C7.5 8.85989 7.76392 7.98986 8.25839 7.24984C8.75285 6.50982 9.45566 5.93304 10.2779 5.59245C11.1002 5.25185 12.005 5.16274 12.8779 5.33637C13.7508 5.51001 14.5526 5.93859 15.182 6.56792C15.8113 7.19726 16.2399 7.99908 16.4135 8.872C16.5872 9.74491 16.4981 10.6497 16.1575 11.472C15.8169 12.2942 15.2401 12.9971 14.5001 13.4915C13.76 13.986 12.89 14.2499 12 14.2499C10.8065 14.2499 9.66193 13.7758 8.81802 12.9319C7.97411 12.088 7.5 10.9434 7.5 9.74991Z" fill="#0C4A9F"/>
</svg>
